<?xml version="1.0" encoding="utf-8"?>
<!-- Generator: Adobe Illustrator 16.0.0, SVG Export Plug-In . SVG Version: 6.00 Build 0)  -->
<!DOCTYPE svg PUBLIC "-//W3C//DTD SVG 1.1//EN" "http://www.w3.org/Graphics/SVG/1.1/DTD/svg11.dtd">
<svg version="1.1" id="Layer_1" xmlns="http://www.w3.org/2000/svg" xmlns:xlink="http://www.w3.org/1999/xlink" x="0px" y="0px"
	 width="768px" height="200px" viewBox="0 0 768 200" enable-background="new 0 0 768 200" xml:space="preserve">
<linearGradient id="SVGID_1_" gradientUnits="userSpaceOnUse" x1="396" y1="-9.335" x2="396" y2="-200.1523" gradientTransform="matrix(1 0 0 -1 -12 -5)">
	<stop  offset="0" style="stop-color:#F5F5F5"/>
	<stop  offset="1" style="stop-color:#E2E2E2"/>
</linearGradient>
<rect y="1" fill="url(#SVGID_1_)" width="768" height="197"/>
<g opacity="0.4">
	<image overflow="visible" width="704" height="703" xlink:href="6D3EE5317F46E4B8.png"  transform="matrix(1 0 0 1 28.5 -227.5)">
	</image>
	<g>
		<g>
			<radialGradient id="SVGID_2_" cx="378.5" cy="125.5" r="267.421" gradientUnits="userSpaceOnUse">
				<stop  offset="0" style="stop-color:#FFFFFF"/>
				<stop  offset="1" style="stop-color:#FFFFFF;stop-opacity:0"/>
			</radialGradient>
			<path fill="url(#SVGID_2_)" d="M380.438,123.956l0.217-0.044l255.92-193.821c-15.867-20.951-34.292-39.929-54.765-56.405
				l-201.355,250.19L380.438,123.956z"/>
			<radialGradient id="SVGID_3_" cx="378.5" cy="125.5" r="267.421" gradientUnits="userSpaceOnUse">
				<stop  offset="0" style="stop-color:#FFFFFF"/>
				<stop  offset="1" style="stop-color:#FFFFFF;stop-opacity:0"/>
			</radialGradient>
			<path fill="url(#SVGID_3_)" d="M527.267-161.763c-23.64-12.156-48.759-21.348-74.66-27.319L380.52,123.604L527.267-161.763z"/>
			<radialGradient id="SVGID_4_" cx="378.5" cy="125.5" r="267.421" gradientUnits="userSpaceOnUse">
				<stop  offset="0" style="stop-color:#FFFFFF"/>
				<stop  offset="1" style="stop-color:#FFFFFF;stop-opacity:0"/>
			</radialGradient>
			<path fill="url(#SVGID_4_)" d="M380.287,123.986l0.045-0.021l0.007,0.01l0.022-0.004l-0.016-0.035l0.049-0.098l7.646-321.042
				c-2.577-0.061-5.164-0.051-7.706-0.092c-23.724,0-47.468,2.637-70.573,7.835l70.443,313.083L247.641-168.629
				c-24.035,10.902-46.701,24.769-67.368,41.217l199.989,251.29L380.287,123.986z"/>
			<radialGradient id="SVGID_5_" cx="378.5" cy="125.5" r="267.421" gradientUnits="userSpaceOnUse">
				<stop  offset="0" style="stop-color:#FFFFFF"/>
				<stop  offset="1" style="stop-color:#FFFFFF;stop-opacity:0"/>
			</radialGradient>
			<path fill="url(#SVGID_5_)" d="M695.53,61.278c-5.188-26.076-13.62-51.469-25.063-75.472L380.866,123.869L695.53,61.278z"/>
			<radialGradient id="SVGID_6_" cx="378.5" cy="125.5" r="267.4348" gradientUnits="userSpaceOnUse">
				<stop  offset="0" style="stop-color:#FFFFFF"/>
				<stop  offset="1" style="stop-color:#FFFFFF;stop-opacity:0"/>
			</radialGradient>
			<path fill="url(#SVGID_6_)" d="M380.225,124.131l-0.045,0.021l-0.008-0.01l-0.021,0.004l0.015,0.035l-0.049,0.098l-7.646,321.042
				c2.578,0.062,5.164,0.052,7.707,0.092c23.726,0,47.467-2.637,70.572-7.835l-70.441-313.084L512.87,416.746
				c24.035-10.901,46.7-24.77,67.368-41.217L380.25,124.24L380.225,124.131z"/>
			<radialGradient id="SVGID_7_" cx="378.5" cy="125.5" r="267.421" gradientUnits="userSpaceOnUse">
				<stop  offset="0" style="stop-color:#FFFFFF"/>
				<stop  offset="1" style="stop-color:#FFFFFF;stop-opacity:0"/>
			</radialGradient>
			<path fill="url(#SVGID_7_)" d="M701.512,124H380.279l-0.125-0.038L133.88-82.14c-16.957,20.263-31.383,42.592-42.879,66.37
				l288.89,139.661L68.647,45.82C62.247,71.347,59.001,97,59.001,124h321.208h0.025l0.068,0.088l-0.07,0.027l0.125,0.037
				L626.63,330.256c16.957-20.263,31.386-42.591,42.88-66.369l-288.888-139.66l311.243,78.014
				C698.264,176.712,701.512,151,701.512,124z"/>
			<radialGradient id="SVGID_8_" cx="378.5" cy="125.5" r="267.421" gradientUnits="userSpaceOnUse">
				<stop  offset="0" style="stop-color:#FFFFFF"/>
				<stop  offset="1" style="stop-color:#FFFFFF;stop-opacity:0"/>
			</radialGradient>
			<path fill="url(#SVGID_8_)" d="M233.246,409.88c23.639,12.156,48.758,21.348,74.659,27.32l72.088-312.687L233.246,409.88z"/>
			<radialGradient id="SVGID_9_" cx="378.5" cy="125.5" r="267.421" gradientUnits="userSpaceOnUse">
				<stop  offset="0" style="stop-color:#FFFFFF"/>
				<stop  offset="1" style="stop-color:#FFFFFF;stop-opacity:0"/>
			</radialGradient>
			<path fill="url(#SVGID_9_)" d="M64.982,186.84c5.188,26.075,13.62,51.469,25.064,75.473l289.601-138.063L64.982,186.84z"/>
			<radialGradient id="SVGID_10_" cx="378.5" cy="125.5" r="267.421" gradientUnits="userSpaceOnUse">
				<stop  offset="0" style="stop-color:#FFFFFF"/>
				<stop  offset="1" style="stop-color:#FFFFFF;stop-opacity:0"/>
			</radialGradient>
			<path fill="url(#SVGID_10_)" d="M380.075,124.161l-0.216,0.044l-255.922,193.82c15.868,20.951,34.293,39.931,54.766,56.405
				l201.355-250.189L380.075,124.161z"/>
		</g>
	</g>
</g>
<g opacity="0.66">
	<radialGradient id="SVGID_11_" cx="378.5" cy="125.5" r="267.421" gradientUnits="userSpaceOnUse">
		<stop  offset="0" style="stop-color:#FFFFFF"/>
		<stop  offset="1" style="stop-color:#FFFFFF;stop-opacity:0"/>
	</radialGradient>
	<path fill="url(#SVGID_11_)" d="M380.438,123.956l0.217-0.044l255.92-193.821c-15.867-20.951-34.292-39.929-54.765-56.405
		l-201.355,250.19L380.438,123.956z"/>
	<radialGradient id="SVGID_12_" cx="378.5" cy="125.5" r="267.421" gradientUnits="userSpaceOnUse">
		<stop  offset="0" style="stop-color:#FFFFFF"/>
		<stop  offset="1" style="stop-color:#FFFFFF;stop-opacity:0"/>
	</radialGradient>
	<path fill="url(#SVGID_12_)" d="M527.267-161.763c-23.64-12.156-48.759-21.348-74.66-27.319L380.52,123.604L527.267-161.763z"/>
	<radialGradient id="SVGID_13_" cx="378.5" cy="125.5" r="267.421" gradientUnits="userSpaceOnUse">
		<stop  offset="0" style="stop-color:#FFFFFF"/>
		<stop  offset="1" style="stop-color:#FFFFFF;stop-opacity:0"/>
	</radialGradient>
	<path fill="url(#SVGID_13_)" d="M380.287,123.986l0.045-0.021l0.007,0.01l0.022-0.004l-0.016-0.035l0.049-0.098l7.646-321.042
		c-2.577-0.061-5.164-0.051-7.706-0.092c-23.724,0-47.468,2.637-70.573,7.835l70.443,313.083L247.641-168.629
		c-24.035,10.902-46.701,24.769-67.368,41.217l199.989,251.29L380.287,123.986z"/>
	<radialGradient id="SVGID_14_" cx="378.5" cy="125.5" r="267.421" gradientUnits="userSpaceOnUse">
		<stop  offset="0" style="stop-color:#FFFFFF"/>
		<stop  offset="1" style="stop-color:#FFFFFF;stop-opacity:0"/>
	</radialGradient>
	<path fill="url(#SVGID_14_)" d="M695.53,61.278c-5.188-26.076-13.62-51.469-25.063-75.472L380.866,123.869L695.53,61.278z"/>
	<radialGradient id="SVGID_15_" cx="378.5" cy="125.5" r="267.4348" gradientUnits="userSpaceOnUse">
		<stop  offset="0" style="stop-color:#FFFFFF"/>
		<stop  offset="1" style="stop-color:#FFFFFF;stop-opacity:0"/>
	</radialGradient>
	<path fill="url(#SVGID_15_)" d="M380.225,124.131l-0.045,0.021l-0.008-0.01l-0.021,0.004l0.015,0.035l-0.049,0.098l-7.646,321.042
		c2.578,0.062,5.164,0.052,7.707,0.092c23.726,0,47.467-2.637,70.572-7.835l-70.441-313.084L512.87,416.746
		c24.035-10.901,46.7-24.77,67.368-41.217L380.25,124.24L380.225,124.131z"/>
	<radialGradient id="SVGID_16_" cx="378.5" cy="125.5" r="267.421" gradientUnits="userSpaceOnUse">
		<stop  offset="0" style="stop-color:#FFFFFF"/>
		<stop  offset="1" style="stop-color:#FFFFFF;stop-opacity:0"/>
	</radialGradient>
	<path fill="url(#SVGID_16_)" d="M701.512,124H380.279l-0.125-0.038L133.88-82.14c-16.957,20.263-31.383,42.592-42.879,66.37
		l288.89,139.661L68.647,45.82C62.247,71.347,59.001,97,59.001,124h321.208h0.025l0.068,0.088l-0.07,0.027l0.125,0.037
		L626.63,330.256c16.957-20.263,31.386-42.591,42.88-66.369l-288.888-139.66l311.243,78.014
		C698.264,176.712,701.512,151,701.512,124z"/>
	<radialGradient id="SVGID_17_" cx="378.5" cy="125.5" r="267.421" gradientUnits="userSpaceOnUse">
		<stop  offset="0" style="stop-color:#FFFFFF"/>
		<stop  offset="1" style="stop-color:#FFFFFF;stop-opacity:0"/>
	</radialGradient>
	<path fill="url(#SVGID_17_)" d="M233.246,409.88c23.639,12.156,48.758,21.348,74.659,27.32l72.088-312.687L233.246,409.88z"/>
	<radialGradient id="SVGID_18_" cx="378.5" cy="125.5" r="267.421" gradientUnits="userSpaceOnUse">
		<stop  offset="0" style="stop-color:#FFFFFF"/>
		<stop  offset="1" style="stop-color:#FFFFFF;stop-opacity:0"/>
	</radialGradient>
	<path fill="url(#SVGID_18_)" d="M64.982,186.84c5.188,26.075,13.62,51.469,25.064,75.473l289.601-138.063L64.982,186.84z"/>
	<radialGradient id="SVGID_19_" cx="378.5" cy="125.5" r="267.421" gradientUnits="userSpaceOnUse">
		<stop  offset="0" style="stop-color:#FFFFFF"/>
		<stop  offset="1" style="stop-color:#FFFFFF;stop-opacity:0"/>
	</radialGradient>
	<path fill="url(#SVGID_19_)" d="M380.075,124.161l-0.216,0.044l-255.922,193.82c15.868,20.951,34.293,39.931,54.766,56.405
		l201.355-250.189L380.075,124.161z"/>
</g>
<g>
	<path fill="#3E6F7C" d="M318.553,160.616c-2.019,0-3.652-1.63-3.652-3.64V96.256c0-2.01,1.634-3.64,3.652-3.64h82.556
		c2.016,0,3.648,1.63,3.648,3.64v60.721c0,2.01-1.634,3.641-3.648,3.641L318.553,160.616L318.553,160.616z"/>
	<rect x="324.615" y="97.474" fill="#FFFFFF" width="71.641" height="58.131"/>
	<path fill="#3E6F7C" d="M417.092,160.463c-1.288,0-2.334-1.129-2.334-2.518v-44.35c0-1.391,1.046-2.517,2.334-2.517h19.912
		c1.285,0,2.331,1.126,2.331,2.517v44.35c0,1.389-1.046,2.518-2.331,2.518H417.092z"/>
	<rect x="417.186" y="117.492" fill="#FFFFFF" width="19.723" height="35.85"/>
	<circle fill="#FFFFFF" cx="400.521" cy="126.539" r="0.797"/>
	<circle fill="#FFFFFF" cx="427.047" cy="114.205" r="0.797"/>
	<path opacity="0.5" fill="#FFFFFF" enable-background="new    " d="M319.682,128.664c-0.587,0-1.062-0.475-1.062-1.062v-2.125
		c0-0.586,0.476-1.062,1.062-1.062l0,0c0.587,0,1.062,0.476,1.062,1.062v2.125C320.744,128.189,320.269,128.664,319.682,128.664
		L319.682,128.664z"/>
	<path opacity="0.5" fill="#FFFFFF" enable-background="new    " d="M319.682,119.102c-0.587,0-1.062-0.475-1.062-1.062v-2.125
		c0-0.587,0.476-1.062,1.062-1.062l0,0c0.587,0,1.062,0.476,1.062,1.062v2.125C320.744,118.627,320.269,119.102,319.682,119.102
		L319.682,119.102z"/>
	<path opacity="0.5" fill="#FFFFFF" enable-background="new    " d="M319.682,138.227c-0.587,0-1.062-0.475-1.062-1.062v-2.125
		c0-0.587,0.476-1.062,1.062-1.062l0,0c0.587,0,1.062,0.476,1.062,1.062v2.125C320.744,137.752,320.269,138.227,319.682,138.227
		L319.682,138.227z"/>
	<circle opacity="0.5" fill="#FFFFFF" enable-background="new    " cx="427.046" cy="157.116" r="1.5"/>
	<rect x="327.616" y="100.474" fill="#8CBFB5" width="16.167" height="52.131"/>
	<rect x="419.186" y="119.492" fill="#F58676" width="15.723" height="9.132"/>
	<rect x="419.186" y="130.624" fill="#8CBFB5" width="15.723" height="20.718"/>
	<rect x="346.782" y="100.474" fill="#CCE6E1" width="46.474" height="25.065"/>
	<rect x="346.782" y="128.539" fill="#F58676" width="46.474" height="24.066"/>
</g>
</svg>
