<?xml version="1.0" encoding="utf-8"?>
<!-- Generator: Adobe Illustrator 16.0.0, SVG Export Plug-In . SVG Version: 6.00 Build 0)  -->
<!DOCTYPE svg PUBLIC "-//W3C//DTD SVG 1.1//EN" "http://www.w3.org/Graphics/SVG/1.1/DTD/svg11.dtd">
<svg version="1.1" id="Layer_1" xmlns="http://www.w3.org/2000/svg" xmlns:xlink="http://www.w3.org/1999/xlink" x="0px" y="0px"
	 width="144.141px" height="144.005px" viewBox="0 0 144.141 144.005" enable-background="new 0 0 144.141 144.005"
	 xml:space="preserve">
<g opacity="0.5">
	<path fill="#96CD86" d="M108.975,53.567c-2.36-4.722-8.089-6.645-12.816-4.31c1.656-2.671,1.945-6.107,0.445-9.13
		c-2.304-4.646-7.938-6.543-12.584-4.239c-0.358,0.179-0.702,0.378-1.028,0.594c0.014-1.644-0.343-3.314-1.124-4.888
		c-2.649-5.34-9.126-7.521-14.466-4.872c-0.526,0.261-1.056,0.517-1.483,0.891c-0.68,0.592,0.122,0.972,0.456,0.849
		c4.729-1.747,10.11,0.318,12.402,4.936c1.044,2.107,1.278,4.403,0.818,6.536c-0.227,1.058-0.694,2.038-1.18,3.008
		c-0.662,1.329,0.802,1.75,1.659,0.835c1.133-1.211,1.889-2.532,2.44-4.212c2.864-2.356,9.377-1.947,11.4,2.132
		c1.522,3.067,1.064,6.598-0.883,9.146c-0.783,1.025,1.019,0.53,1.718,0.179c4.3-1.88,9.363-0.091,11.483,4.154
		c1.837,3.676,0.884,8.017-2.055,10.614c-0.565,0.499-0.474,1.129,0.507,0.638C109.42,64.06,111.341,58.303,108.975,53.567z"/>
</g>
<path fill="#FFFFFF" d="M68.721,136.222c0.016,0.008,0.032,0.008,0.048,0.008C68.753,136.229,68.737,136.229,68.721,136.222z"/>
<path opacity="0.5" fill="#FFFFFF" d="M89.237,133.99c7.247-2.076,13.611-5.219,18.831-8.677c1.038-0.692-6.24-9.181-20.5-9.181
	C83.907,116.132,80.81,125.564,89.237,133.99z"/>
<path opacity="0.5" fill="#FFFFFF" d="M74.269,116.862c-7.198,0-13.172,14.023-2.992,19.438c4.44,0.196,10.195-0.557,12.443-1.021
	C70.459,122.019,78.053,116.862,74.269,116.862z"/>
<path opacity="0.5" fill="#FFFFFF" d="M53.112,133.472c0-9.536,12.465-18.392,8.268-18.392c-15.406,0-26.818,9.18-25.797,9.879
	C40.535,128.331,47.5,131.97,53.112,133.472z"/>
<path fill="#FFFFFF" d="M72.07-0.137C32.267-0.137,0,32.13,0,71.934s32.267,72.071,72.07,72.071
	c39.804,0,72.071-32.268,72.071-72.071S111.874-0.137,72.07-0.137z M53.112,133.472c-5.612-1.502-12.577-5.141-17.529-8.513
	c-1.021-0.699,10.391-9.879,25.797-9.879C65.578,115.08,53.112,123.936,53.112,133.472z M71.276,136.3
	c-10.18-5.415-4.206-19.438,2.992-19.438c3.785,0-3.809,5.157,9.451,18.417C81.472,135.743,75.716,136.496,71.276,136.3z
	 M108.975,53.567c2.366,4.736,0.445,10.493-4.292,12.86c-0.98,0.491-1.072-0.139-0.507-0.638c2.939-2.597,3.892-6.938,2.055-10.614
	c-2.121-4.245-7.183-6.034-11.483-4.154c-0.699,0.351-2.501,0.846-1.718-0.179c1.947-2.547,2.405-6.079,0.883-9.146
	c-2.023-4.079-8.536-4.488-11.4-2.132c-0.551,1.68-1.307,3.001-2.44,4.212c-0.856,0.915-2.32,0.494-1.659-0.835
	c0.486-0.97,0.953-1.95,1.18-3.008c0.46-2.133,0.226-4.429-0.818-6.536c-2.292-4.617-7.674-6.682-12.402-4.936
	c-0.333,0.124-1.135-0.256-0.456-0.849c0.428-0.374,0.957-0.63,1.483-0.891c5.34-2.649,11.817-0.469,14.466,4.872
	c0.781,1.574,1.138,3.245,1.124,4.888c0.326-0.216,0.669-0.415,1.028-0.594c4.646-2.305,10.28-0.408,12.584,4.239
	c1.5,3.023,1.21,6.459-0.445,9.13C100.885,46.922,106.614,48.845,108.975,53.567z M78.389,81.447c1.949,0,3.835-0.197,5.628-0.542
	c-2.799,5.478-6.368,10.508-10.044,10.508c-4.528,0-11.728-8.645-17.2-16.251c0.96-0.676,1.746-1.473,2.375-2.354
	C62.417,77.893,69.79,81.447,78.389,81.447z M108.068,125.313c-5.22,3.458-11.584,6.602-18.831,8.677
	c-8.428-8.426-5.33-17.858-1.668-17.858C101.829,116.132,109.106,124.621,108.068,125.313z M116.811,118.224
	c-8.932-4.276-23.159-7.217-39.522-7.735V96.64l14.149-18.33c3.913-2.137,6.679-5.204,7.625-8.721
	c1.004,0.275,2.042,0.466,3.142,0.466c6.681,0,12.106-5.421,12.106-12.102c0-6.682-5.425-12.106-12.106-12.106
	c-0.329,0-0.626,0.072-0.958,0.099c0.171-0.803,0.251-1.622,0.251-2.471c0-6.819-5.518-12.341-12.34-12.341
	c-1.636,0-3.19,0.335-4.622,0.916c-1.319-5.687-6.381-9.93-12.465-9.93c-5.636,0-10.367,3.657-12.089,8.715
	c-2.185-1.857-4.982-3.021-8.081-3.021c-6.948,0-12.575,5.631-12.575,12.579c0,0.963,0.126,1.886,0.329,2.792
	c-6.083,0.878-10.775,6.066-10.775,12.394c0,5.239,3.198,9.719,7.75,11.614c-0.071,0.396-0.148,0.79-0.148,1.202
	c0,5.113,5.406,9.256,12.096,9.256c1.195,0,2.326-0.173,3.418-0.42l15.327,18.458v14.793c-16.545,0.478-30.984,3.426-40.008,7.732
	C15.21,106.504,7.681,90.093,7.681,71.925c0-35.562,28.832-64.39,64.39-64.39c35.557,0,64.388,28.827,64.388,64.39
	C136.458,90.101,128.93,106.512,116.811,118.224z"/>
<g>
	<g>
		<circle fill="#4D834F" cx="740.581" cy="81.684" r="53.322"/>
		<g>
			<g>
				<path fill="#96CD86" d="M767.885,68.095c-1.746-3.494-5.985-4.916-9.482-3.188c1.225-1.976,1.439-4.519,0.329-6.755
					c-1.705-3.438-5.873-4.841-9.31-3.136c-0.265,0.133-0.519,0.28-0.761,0.439c0.01-1.216-0.253-2.452-0.832-3.617
					c-1.959-3.951-6.751-5.564-10.703-3.604c-0.39,0.193-0.781,0.382-1.098,0.659c-0.503,0.438,0.09,0.719,0.337,0.628
					c3.499-1.292,7.48,0.236,9.176,3.652c0.772,1.559,0.946,3.258,0.605,4.835c-0.168,0.783-0.514,1.508-0.873,2.226
					c-0.489,0.983,0.594,1.295,1.227,0.618c0.839-0.896,1.398-1.873,1.806-3.116c2.119-1.743,6.938-1.441,8.434,1.577
					c1.126,2.269,0.788,4.882-0.653,6.766c-0.58,0.759,0.753,0.392,1.271,0.133c3.182-1.391,6.927-0.067,8.496,3.073
					c1.359,2.72,0.654,5.931-1.521,7.853c-0.418,0.369-0.351,0.835,0.375,0.472C768.214,75.858,769.636,71.599,767.885,68.095z"/>
			</g>
			<g>
				<path fill="#FFFFFF" d="M738.104,129.248c0.011,0.006,0.023,0.006,0.036,0.006C738.127,129.253,738.115,129.253,738.104,129.248
					z"/>
				<path fill="#FFFFFF" d="M731.021,82.331c-0.465,0.651-1.046,1.241-1.757,1.741c4.049,5.628,9.375,12.023,12.726,12.023
					c2.72,0,5.36-3.722,7.431-7.774c-1.326,0.255-2.722,0.401-4.164,0.401C738.894,88.722,733.439,86.092,731.021,82.331z"/>
				<path fill="#96CD86" d="M753.282,127.597c5.362-1.536,10.07-3.861,13.932-6.42c0.768-0.512-4.616-6.793-15.167-6.793
					C749.339,114.384,747.047,121.362,753.282,127.597z"/>
				<path fill="#96CD86" d="M742.208,114.924c-5.325,0-9.745,10.375-2.214,14.381c3.285,0.145,7.543-0.412,9.206-0.755
					C739.39,118.74,745.008,114.924,742.208,114.924z"/>
				<path fill="#FFFFFF" d="M740.581,34.039c-26.308,0-47.639,21.328-47.639,47.639c0,13.441,5.57,25.583,14.526,34.247
					c6.676-3.186,17.359-5.367,29.6-5.721V99.259l-11.34-13.657c-0.809,0.184-1.646,0.311-2.529,0.311
					c-4.95,0-8.949-3.065-8.949-6.848c0-0.305,0.057-0.597,0.11-0.889c-3.368-1.402-5.734-4.716-5.734-8.592
					c0-4.681,3.471-8.52,7.972-9.169c-0.15-0.67-0.244-1.353-0.244-2.066c0-5.14,4.163-9.307,9.303-9.307
					c2.292,0,4.362,0.861,5.979,2.235c1.274-3.743,4.774-6.448,8.944-6.448c4.501,0,8.247,3.14,9.223,7.347
					c1.059-0.429,2.209-0.678,3.419-0.678c5.047,0,9.129,4.085,9.129,9.131c0,0.628-0.059,1.234-0.186,1.828
					c0.245-0.02,0.465-0.073,0.708-0.073c4.943,0,8.957,4.013,8.957,8.957c0,4.942-4.014,8.953-8.957,8.953
					c-0.814,0-1.582-0.141-2.324-0.345c-0.7,2.602-2.746,4.871-5.641,6.452l-10.469,13.562v10.246
					c12.107,0.383,22.632,2.559,29.241,5.723c8.966-8.665,14.536-20.807,14.536-34.254
					C788.219,55.366,766.888,34.039,740.581,34.039z"/>
				<path fill="#96CD86" d="M726.555,127.213c0-7.055,9.222-13.607,6.117-13.607c-11.398,0-19.842,6.792-19.086,7.309
					C717.25,123.409,722.403,126.102,726.555,127.213z"/>
			</g>
		</g>
	</g>
</g>
<g>
	<path fill="#FFFFFF" d="M818.11,60.423h12.038v47.374c0,4.558,2.837,4.474,5.33,4.474h21.584v11.092h-25.839
		c-6.855,0-13.112-2.539-13.112-12.253V60.423z"/>
	<path fill="#FFFFFF" d="M862.485,63.302c0-1.289,0.688-2.148,2.065-2.148h9.027c1.29,0,1.933,0.947,1.933,2.148v7.625
		c0,1.288-0.727,1.973-1.933,1.973h-9.027c-1.204,0-2.065-0.773-2.065-1.973V63.302z M862.92,77.706h12.037v45.657H862.92V77.706z"
		/>
	<path fill="#FFFFFF" d="M892.914,77.706l9.969,31.556l10.286-31.556h12.828l-16.568,45.657h-13.455l-15.938-45.657H892.914z"/>
	<path fill="#FFFFFF" d="M946.572,77.361c13.205,0,19.345,1.503,19.345,16.638c0,8.137-4.471,11.436-12.725,11.436h-14.53
		c0,8.242,3.111,8.732,9.629,8.732c6.966,0,10.319,0.036,16.768-0.908v8.126c-6.445,2.403-16.252,2.408-23.387,2.408
		c-11.609,0-15.047-6.723-15.047-23.475C926.625,80.697,932.09,77.361,946.572,77.361z M950.07,96.793
		c2.509,0,3.81-1.231,3.81-3.412c0-5.761-0.821-6.819-6.606-6.819c-6.359,0-8.708,0.367-8.611,10.231H950.07z"/>
	<path fill="#FFFFFF" d="M998.08,59.995c14.882,0,25.246,2.836,25.246,32.33c0,27.769-9.761,31.379-25.246,31.379
		c-15.471,0-25.311-2.75-25.311-31.379C972.77,62.832,983.642,59.995,998.08,59.995z M998.08,112.615
		c10.105,0,13.21-3.326,13.21-20.29c0-19.611-3.641-21.241-13.21-21.241c-9.302,0-13.272,1.207-13.272,21.241
		C984.808,109.5,987.336,112.615,998.08,112.615z"/>
	<path fill="#FFFFFF" d="M1028.783,107.424c0-6.641,3.586-12.521,13.372-12.521c0,0,13.412,0.086,13.412,0c0,0,0.086-2.837,0-2.925
		c0-4.866-2.275-5.634-6.103-5.634c-3.972,0-15.424,0.715-19.178,0.987v-7.434c6.012-2.336,12.297-3.013,20.809-3.051
		c9.833-0.039,16.509,3.356,16.509,14.659v31.859h-9.501l-2.536-5.031c-0.5,0.994-6.912,5.689-13.884,5.547
		c-8.782-0.234-12.9-6.216-12.9-12.153V107.424z M1045.088,114.203c5.035,0,10.479-3.533,10.479-3.533v-8.369l-11.047,0.854
		c-3.175,0.296-3.699,2.647-3.699,4.642v2.222C1040.821,113.814,1042.872,114.203,1045.088,114.203z"/>
	<path fill="#FFFFFF" d="M1074.746,56.125h12.037v36.886h2.492l12.962-15.306h15.242l-17.126,19.902l17.126,25.754h-14.295
		l-13.909-21.155h-2.492v21.155h-12.037V56.125z"/>
</g>
<g>
	<g>
		<circle fill="#4D834F" cx="1259.996" cy="83.457" r="23.763"/>
		<g>
			<g>
				<path fill="#96CD86" d="M1272.164,77.401c-0.778-1.557-2.667-2.191-4.227-1.421c0.547-0.88,0.642-2.014,0.147-3.01
					c-0.76-1.532-2.617-2.158-4.149-1.397c-0.118,0.059-0.231,0.125-0.339,0.196c0.005-0.542-0.112-1.093-0.37-1.612
					c-0.874-1.761-3.01-2.479-4.771-1.606c-0.174,0.086-0.348,0.17-0.489,0.294c-0.224,0.195,0.04,0.32,0.15,0.28
					c1.56-0.576,3.333,0.105,4.09,1.627c0.344,0.694,0.421,1.452,0.27,2.155c-0.074,0.349-0.229,0.672-0.389,0.992
					c-0.219,0.438,0.265,0.577,0.547,0.275c0.373-0.399,0.623-0.835,0.805-1.389c0.943-0.777,3.092-0.643,3.759,0.703
					c0.501,1.011,0.351,2.176-0.292,3.015c-0.258,0.338,0.336,0.175,0.566,0.06c1.418-0.62,3.088-0.03,3.787,1.37
					c0.605,1.212,0.291,2.643-0.678,3.5c-0.188,0.165-0.156,0.372,0.167,0.21C1272.311,80.861,1272.944,78.963,1272.164,77.401z"/>
			</g>
			<g>
				<path fill="#FFFFFF" d="M1258.892,104.654c0.005,0.002,0.011,0.002,0.016,0.002
					C1258.902,104.657,1258.896,104.657,1258.892,104.654z"/>
				<path fill="#FFFFFF" d="M1255.735,83.745c-0.208,0.291-0.467,0.553-0.783,0.776c1.804,2.508,4.178,5.358,5.671,5.358
					c1.212,0,2.389-1.659,3.312-3.465c-0.591,0.114-1.213,0.179-1.855,0.179C1259.244,86.594,1256.812,85.422,1255.735,83.745z"/>
				<path fill="#96CD86" d="M1265.656,103.918c2.39-0.685,4.487-1.721,6.209-2.861c0.342-0.229-2.058-3.027-6.76-3.027
					C1263.898,98.03,1262.877,101.14,1265.656,103.918z"/>
				<path fill="#96CD86" d="M1260.721,98.271c-2.373,0-4.343,4.624-0.986,6.409c1.464,0.064,3.361-0.184,4.102-0.336
					C1259.465,99.971,1261.969,98.271,1260.721,98.271z"/>
				<path fill="#FFFFFF" d="M1259.996,62.224c-11.725,0-21.231,9.505-21.231,21.23c0,5.99,2.482,11.401,6.474,15.263
					c2.976-1.42,7.736-2.392,13.191-2.55V91.29l-5.053-6.086c-0.361,0.082-0.733,0.139-1.128,0.139
					c-2.206,0-3.988-1.366-3.988-3.052c0-0.136,0.026-0.266,0.05-0.396c-1.502-0.625-2.556-2.102-2.556-3.83
					c0-2.086,1.547-3.797,3.553-4.086c-0.066-0.299-0.108-0.603-0.108-0.92c0-2.291,1.854-4.147,4.146-4.147
					c1.022,0,1.944,0.383,2.665,0.996c0.567-1.668,2.127-2.874,3.986-2.874c2.006,0,3.675,1.399,4.109,3.274
					c0.472-0.191,0.984-0.302,1.523-0.302c2.25,0,4.069,1.821,4.069,4.069c0,0.28-0.026,0.55-0.083,0.815
					c0.109-0.009,0.208-0.033,0.316-0.033c2.202,0,3.991,1.789,3.991,3.992c0,2.202-1.789,3.99-3.991,3.99
					c-0.363,0-0.705-0.063-1.036-0.154c-0.312,1.16-1.224,2.171-2.514,2.875l-4.666,6.044v4.566
					c5.396,0.171,10.087,1.141,13.032,2.55c3.995-3.861,6.478-9.272,6.478-15.266C1281.226,71.729,1271.72,62.224,1259.996,62.224z"
					/>
				<path fill="#96CD86" d="M1253.744,103.748c0-3.144,4.11-6.064,2.727-6.064c-5.08,0-8.843,3.026-8.506,3.257
					C1249.598,102.052,1251.895,103.252,1253.744,103.748z"/>
			</g>
		</g>
	</g>
</g>
<g>
	<path fill="#FFFFFF" d="M1294.547,73.982h5.365v21.113c0,2.031,1.264,1.994,2.375,1.994h9.619v4.943h-11.516
		c-3.055,0-5.844-1.132-5.844-5.461V73.982z"/>
	<path fill="#FFFFFF" d="M1314.323,75.265c0-0.574,0.307-0.958,0.92-0.958h4.023c0.575,0,0.861,0.422,0.861,0.958v3.398
		c0,0.574-0.324,0.879-0.861,0.879h-4.023c-0.536,0-0.92-0.345-0.92-0.879V75.265z M1314.518,81.685h5.364v20.347h-5.364V81.685z"/>
	<path fill="#FFFFFF" d="M1327.885,81.685l4.442,14.063l4.584-14.063h5.717l-7.384,20.347h-5.996l-7.104-20.347H1327.885z"/>
	<path fill="#FFFFFF" d="M1351.798,81.53c5.885,0,8.621,0.67,8.621,7.415c0,3.626-1.993,5.097-5.671,5.097h-6.476
		c0,3.673,1.387,3.892,4.291,3.892c3.104,0,4.599,0.016,7.473-0.405v3.622c-2.872,1.071-7.243,1.073-10.423,1.073
		c-5.174,0-6.705-2.996-6.705-10.462C1342.908,83.018,1345.344,81.53,1351.798,81.53z M1353.356,90.191
		c1.118,0,1.698-0.549,1.698-1.521c0-2.567-0.366-3.04-2.945-3.04c-2.834,0-3.88,0.164-3.837,4.56H1353.356z"/>
	<path fill="#FFFFFF" d="M1374.752,73.792c6.633,0,11.252,1.264,11.252,14.408c0,12.375-4.351,13.984-11.252,13.984
		c-6.895,0-11.279-1.225-11.279-13.984C1363.473,75.055,1368.317,73.792,1374.752,73.792z M1374.752,97.242
		c4.504,0,5.888-1.482,5.888-9.042c0-8.74-1.622-9.466-5.888-9.466c-4.145,0-5.914,0.538-5.914,9.466
		C1368.838,95.854,1369.964,97.242,1374.752,97.242z"/>
	<path fill="#FFFFFF" d="M1388.436,94.929c0-2.96,1.598-5.58,5.959-5.58c0,0,5.978,0.038,5.978,0c0,0,0.038-1.265,0-1.304
		c0-2.168-1.014-2.511-2.72-2.511c-1.77,0-6.873,0.319-8.547,0.44v-3.313c2.68-1.041,5.48-1.343,9.273-1.36
		c4.383-0.018,7.357,1.496,7.357,6.533v14.198h-4.234l-1.13-2.242c-0.223,0.443-3.08,2.535-6.188,2.472
		c-3.914-0.104-5.749-2.77-5.749-5.416V94.929z M1395.702,97.95c2.243,0,4.67-1.574,4.67-1.574v-3.73l-4.923,0.38
		c-1.415,0.132-1.648,1.18-1.648,2.069v0.99C1393.801,97.776,1394.715,97.95,1395.702,97.95z"/>
	<path fill="#FFFFFF" d="M1408.919,72.067h5.364v16.438h1.111l5.776-6.821h6.793l-7.632,8.87l7.632,11.478h-6.37l-6.199-9.428
		h-1.111v9.428h-5.364V72.067z"/>
</g>
<g>
	<g>
		<circle fill="#4D834F" cx="1536.021" cy="60.125" r="11.881"/>
		<g>
			<g>
				<path fill="#96CD86" d="M1542.105,57.098c-0.389-0.778-1.334-1.096-2.113-0.711c0.273-0.44,0.32-1.007,0.074-1.505
					c-0.381-0.766-1.309-1.079-2.075-0.699c-0.06,0.03-0.116,0.062-0.169,0.098c0.002-0.271-0.057-0.547-0.186-0.806
					c-0.438-0.88-1.505-1.24-2.385-0.803c-0.088,0.043-0.174,0.085-0.245,0.147c-0.112,0.098,0.021,0.16,0.075,0.14
					c0.779-0.288,1.666,0.052,2.045,0.813c0.172,0.347,0.211,0.726,0.135,1.077c-0.037,0.175-0.114,0.336-0.194,0.496
					c-0.109,0.219,0.132,0.289,0.273,0.138c0.187-0.199,0.312-0.417,0.402-0.694c0.472-0.389,1.546-0.321,1.88,0.352
					c0.25,0.506,0.175,1.088-0.146,1.508c-0.129,0.169,0.168,0.087,0.283,0.029c0.709-0.31,1.544-0.015,1.894,0.685
					c0.303,0.606,0.146,1.322-0.339,1.75c-0.094,0.083-0.078,0.187,0.084,0.105C1542.179,58.827,1542.496,57.878,1542.105,57.098z"
					/>
			</g>
			<g>
				<path fill="#FFFFFF" d="M1535.469,70.724c0.003,0.001,0.006,0.001,0.008,0.001C1535.475,70.726,1535.472,70.726,1535.469,70.724
					z"/>
				<path fill="#FFFFFF" d="M1533.891,60.27c-0.104,0.146-0.232,0.276-0.391,0.388c0.901,1.254,2.088,2.679,2.835,2.679
					c0.606,0,1.194-0.829,1.655-1.732c-0.295,0.057-0.605,0.089-0.928,0.089C1535.646,61.694,1534.43,61.108,1533.891,60.27z"/>
				<path fill="#96CD86" d="M1538.852,70.356c1.195-0.343,2.244-0.86,3.104-1.431c0.171-0.114-1.028-1.514-3.38-1.514
					C1537.973,67.412,1537.462,68.967,1538.852,70.356z"/>
				<path fill="#96CD86" d="M1536.384,67.532c-1.187,0-2.171,2.312-0.493,3.205c0.732,0.032,1.681-0.092,2.051-0.168
					C1535.756,68.383,1537.008,67.532,1536.384,67.532z"/>
				<path fill="#FFFFFF" d="M1536.021,49.509c-5.862,0-10.615,4.752-10.615,10.615c0,2.995,1.24,5.701,3.236,7.631
					c1.488-0.71,3.868-1.196,6.596-1.275v-2.438l-2.526-3.043c-0.181,0.041-0.366,0.069-0.563,0.069
					c-1.104,0-1.994-0.683-1.994-1.526c0-0.068,0.013-0.133,0.024-0.198c-0.751-0.312-1.278-1.051-1.278-1.915
					c0-1.043,0.773-1.898,1.777-2.043c-0.033-0.149-0.055-0.301-0.055-0.46c0-1.146,0.928-2.074,2.072-2.074
					c0.512,0,0.973,0.192,1.333,0.498c0.284-0.834,1.063-1.437,1.993-1.437c1.003,0,1.838,0.7,2.055,1.637
					c0.236-0.096,0.492-0.151,0.762-0.151c1.125,0,2.035,0.91,2.035,2.034c0,0.14-0.014,0.275-0.042,0.408
					c0.055-0.004,0.104-0.016,0.158-0.016c1.101,0,1.995,0.894,1.995,1.996c0,1.101-0.895,1.995-1.995,1.995
					c-0.182,0-0.353-0.032-0.519-0.077c-0.155,0.58-0.611,1.085-1.256,1.438l-2.334,3.022v2.283c2.698,0.086,5.044,0.57,6.517,1.275
					c1.997-1.931,3.239-4.636,3.239-7.633C1546.637,54.261,1541.883,49.509,1536.021,49.509z"/>
				<path fill="#96CD86" d="M1532.896,70.271c0-1.572,2.056-3.032,1.363-3.032c-2.54,0-4.421,1.513-4.253,1.628
					C1530.822,69.423,1531.971,70.023,1532.896,70.271z"/>
			</g>
		</g>
	</g>
</g>
<g>
	<path fill="#FFFFFF" d="M1553.297,55.388h2.683v10.557c0,1.016,0.632,0.997,1.188,0.997h4.81v2.472h-5.758
		c-1.527,0-2.922-0.566-2.922-2.73V55.388z"/>
	<path fill="#FFFFFF" d="M1563.186,56.029c0-0.287,0.152-0.479,0.459-0.479h2.012c0.288,0,0.432,0.211,0.432,0.479v1.699
		c0,0.287-0.162,0.439-0.432,0.439h-2.012c-0.268,0-0.459-0.172-0.459-0.439V56.029z M1563.282,59.239h2.683v10.174h-2.683V59.239z"
		/>
	<path fill="#FFFFFF" d="M1569.966,59.239l2.222,7.031l2.291-7.031h2.859l-3.692,10.174h-2.998l-3.552-10.174H1569.966z"/>
	<path fill="#FFFFFF" d="M1581.922,59.162c2.943,0,4.311,0.335,4.311,3.708c0,1.813-0.996,2.548-2.835,2.548h-3.237
		c0,1.836,0.693,1.946,2.145,1.946c1.553,0,2.3,0.008,3.736-0.203v1.811c-1.436,0.536-3.621,0.537-5.211,0.537
		c-2.587,0-3.353-1.498-3.353-5.231C1577.478,59.906,1578.695,59.162,1581.922,59.162z M1582.701,63.492
		c0.56,0,0.85-0.274,0.85-0.76c0-1.284-0.184-1.52-1.473-1.52c-1.417,0-1.939,0.082-1.918,2.28H1582.701z"/>
	<path fill="#FFFFFF" d="M1593.399,55.293c3.316,0,5.626,0.632,5.626,7.204c0,6.188-2.176,6.992-5.626,6.992
		c-3.447,0-5.64-0.613-5.64-6.992C1587.76,55.925,1590.182,55.293,1593.399,55.293z M1593.399,67.018
		c2.252,0,2.944-0.741,2.944-4.521c0-4.37-0.812-4.733-2.944-4.733c-2.072,0-2.957,0.269-2.957,4.733
		C1590.442,66.324,1591.006,67.018,1593.399,67.018z"/>
	<path fill="#FFFFFF" d="M1600.241,65.861c0-1.48,0.799-2.79,2.979-2.79c0,0,2.988,0.019,2.988,0c0,0,0.02-0.632,0-0.652
		c0-1.084-0.506-1.255-1.359-1.255c-0.885,0-3.437,0.159-4.273,0.22v-1.656c1.34-0.521,2.74-0.672,4.637-0.68
		c2.191-0.009,3.679,0.748,3.679,3.266v7.1h-2.117l-0.565-1.121c-0.111,0.221-1.539,1.268-3.094,1.235
		c-1.957-0.052-2.874-1.385-2.874-2.708V65.861z M1603.875,67.372c1.121,0,2.334-0.787,2.334-0.787V64.72l-2.461,0.19
		c-0.707,0.066-0.824,0.59-0.824,1.034v0.495C1602.924,67.285,1603.381,67.372,1603.875,67.372z"/>
	<path fill="#FFFFFF" d="M1610.482,54.431h2.683v8.219h0.556l2.889-3.41h3.396l-3.816,4.435l3.816,5.739h-3.186l-3.1-4.714h-0.556
		v4.714h-2.683V54.431z"/>
</g>
</svg>
