<?xml version="1.0" encoding="utf-8"?>
<!-- Generator: Adobe Illustrator 16.0.4, SVG Export Plug-In . SVG Version: 6.00 Build 0)  -->
<!DOCTYPE svg PUBLIC "-//W3C//DTD SVG 1.1//EN" "http://www.w3.org/Graphics/SVG/1.1/DTD/svg11.dtd">
<svg version="1.1" id="Ebene_1" xmlns="http://www.w3.org/2000/svg" xmlns:xlink="http://www.w3.org/1999/xlink" x="0px" y="0px"
	 width="1024px" height="34.576px" viewBox="0 366.971 1024 34.576" enable-background="new 0 366.971 1024 34.576"
	 xml:space="preserve">
<g>
	<g>
		<path fill="#F79A2A" d="M9.117,368.69c175.798,5.677,351.769,7.396,527.74,8.085c87.897,0.344,175.798,0.344,263.696,0.344
			c44.552,0,89.104,0,133.827,0.172c21.674,0,43.521,0.173,65.193,0.173c0.688,0,5.849,0.517,6.881,0
			c5.16-2.753-5.161-1.377-5.505-1.377c-4.646,0.173-9.117,0.345-13.761,0.517c-11.354,0.345-22.88,0.688-34.231,1.032
			c-175.798,5.332-351.597,4.3-527.396,3.097c-86.867-0.688-173.733-1.204-260.601-1.204c-22.018,0-43.864,0-65.881,0.172
			c-10.665,0-21.33,0.173-32.167,0.173c-4.473,0-8.945,0-13.589,0.172c-1.548,0-8.084-1.204-8.084,1.548
			c0-0.172,9.805-0.344,10.321-0.344c43.863-1.721,87.899-2.58,131.763-2.58c176.831-0.517,353.317,9.978,529.804,19.438
			c21.674,1.203,43.521,2.407,65.193,3.439c1.204,0,3.611-1.549,1.376-1.721c-192.312-9.978-384.797-22.706-577.625-22.878
			c-54.184,0-108.541,0.859-162.725,3.269c-1.032,0-3.612,1.721-1.376,1.721c125.226-1.204,250.28-0.173,375.507,0.688
			c126.259,0.86,252.518,1.72,378.775,0.172c71.213-0.859,142.427-2.408,213.641-5.16c1.032,0,3.612-1.721,1.377-1.721
			c-130.902-0.516-261.634-0.344-392.537-0.516c-129.697-0.173-259.568-0.86-389.268-2.926
			c-72.934-1.548-145.868-3.096-218.974-5.504C9.461,366.971,7.053,368.519,9.117,368.69L9.117,368.69z"/>
	</g>
</g>
</svg>
