<?xml version="1.0" encoding="utf-8"?>
<!-- Generator: Adobe Illustrator 16.0.4, SVG Export Plug-In . SVG Version: 6.00 Build 0)  -->
<!DOCTYPE svg PUBLIC "-//W3C//DTD SVG 1.1//EN" "http://www.w3.org/Graphics/SVG/1.1/DTD/svg11.dtd">
<svg version="1.1" id="Ebene_1" xmlns="http://www.w3.org/2000/svg" xmlns:xlink="http://www.w3.org/1999/xlink" x="0px" y="0px"
	 width="50px" height="100px" viewBox="487 334 50 100" enable-background="new 487 334 50 100" xml:space="preserve">
<g>
	<path fill="#FFFFFF" d="M529.674,341.317C524.956,336.601,518.679,334,512,334s-12.956,2.601-17.673,7.326
		C489.601,346.044,487,352.321,487,359s2.601,12.956,7.327,17.673C499.053,381.399,505.33,384,512,384s12.956-2.601,17.674-7.327
		C534.399,371.947,537,365.67,537,359S534.399,346.044,529.674,341.317z M512,381.536c-12.427,0-22.536-10.109-22.536-22.536
		s10.109-22.536,22.536-22.536s22.536,10.109,22.536,22.536S524.427,381.536,512,381.536z"/>
	<path fill="#FFFFFF" d="M518.269,345.296c-0.019,0.018-0.055,0.055-0.055,0.055c-0.055-0.037-0.019-0.073,0.018-0.101
		C518.241,345.259,518.25,345.277,518.269,345.296z"/>
	<path fill="#FFFFFF" d="M506.936,358.872c0-3.559,1.634-6.733,4.198-8.813c-1.953-1.588-4.443-2.546-7.163-2.546
		c-6.277,0-11.359,5.092-11.359,11.359c0,6.277,5.082,11.359,11.359,11.359c2.72,0,5.21-0.948,7.163-2.545
		C508.569,365.605,506.936,362.431,506.936,358.872z"/>
	<circle fill="#FFFFFF" cx="519.91" cy="358.881" r="11.587"/>
</g>
<g>
	<path fill="#2B2F5F" d="M518.177,395.148c-0.018,0.02-0.055,0.056-0.055,0.056c-0.055-0.036-0.018-0.073,0.019-0.101
		C518.149,395.113,518.159,395.131,518.177,395.148z"/>
	<path fill="#FFFFFF" d="M529.673,391.326C524.956,386.6,518.679,384,512,384s-12.956,2.6-17.674,7.326
		C489.601,396.043,487,402.32,487,409c0,6.678,2.601,12.955,7.326,17.673C499.053,431.398,505.33,434,512,434
		c6.679,0,12.956-2.602,17.673-7.327C534.399,421.947,537,415.67,537,409S534.399,396.043,529.673,391.326z M512,431.536
		c-12.427,0-22.536-10.109-22.536-22.536c0-12.428,10.109-22.537,22.536-22.537s22.536,10.109,22.536,22.537
		C534.536,421.427,524.427,431.536,512,431.536z"/>
	<path fill="#FFFFFF" d="M512,387.439c-11.907,0-21.561,9.653-21.561,21.561c0,11.906,9.653,21.56,21.561,21.56
		s21.561-9.653,21.561-21.56C533.561,397.093,523.907,387.439,512,387.439z M505.258,419.036c-5.512,0-9.982-4.471-9.982-9.981
		c0-5.512,4.471-9.982,9.982-9.982c2.39,0,4.58,0.84,6.295,2.235c-2.254,1.834-3.687,4.626-3.687,7.747
		c0,3.129,1.442,5.921,3.687,7.746C509.838,418.197,507.647,419.036,505.258,419.036z M519.263,419.236
		c-5.63,0-10.183-4.562-10.183-10.182c0-5.63,4.562-10.184,10.183-10.184s10.183,4.562,10.183,10.184
		C529.454,414.675,524.893,419.236,519.263,419.236z"/>
</g>
</svg>
