<?xml version="1.0" encoding="utf-8"?>
<!-- Generator: Adobe Illustrator 16.0.4, SVG Export Plug-In . SVG Version: 6.00 Build 0)  -->
<!DOCTYPE svg PUBLIC "-//W3C//DTD SVG 1.1//EN" "http://www.w3.org/Graphics/SVG/1.1/DTD/svg11.dtd">
<svg version="1.1" id="Ebene_1" xmlns="http://www.w3.org/2000/svg" xmlns:xlink="http://www.w3.org/1999/xlink" x="0px" y="0px"
	 width="50px" height="50px" viewBox="140.87 356.087 50 50" enable-background="new 140.87 356.087 50 50" xml:space="preserve">
<path fill="#FFFFFF" d="M183.543,363.405c-4.717-4.717-10.995-7.317-17.673-7.317s-12.956,2.6-17.673,7.327
	c-4.726,4.717-7.327,10.995-7.327,17.673c0,6.679,2.601,12.957,7.327,17.673c4.726,4.727,11.003,7.327,17.673,7.327
	s12.956-2.601,17.673-7.327c4.726-4.727,7.327-11.004,7.327-17.673C190.87,374.417,188.27,368.131,183.543,363.405z M165.87,403.624
	c-12.427,0-22.537-10.109-22.537-22.537s10.11-22.537,22.537-22.537c12.427,0,22.537,10.109,22.537,22.537
	S178.297,403.624,165.87,403.624z"/>
<path fill="#FFFFFF" d="M160.396,381.188c4.69-3.221,9.937-13.896,3.193-19.151c2.4-0.027,4.745-0.119,5.475-1.825
	c-5.538-0.337-11.177-0.401-15.748,0.602c-4.416,2.737-7.856,6.861-9.735,11.761c0.465,4.653,3.741,8.723,10.885,8.157
	c-0.073,2.354,2.007,4.471,1.369,5.931c-4.954-0.958-9.379,0.62-12.126,3.294c0.675,1.697,1.551,3.303,2.583,4.781
	c0.31-3.367,2.773-4.918,6.35-5.794c6.861-1.697,11.989,0.574,12.309,5.475c0.337,5.082-5.356,7.81-10.539,7.618
	c1.898,1.04,3.951,1.834,6.113,2.327c2.409-0.693,4.489-1.743,5.794-3.111C173.562,393.715,165.377,386.288,160.396,381.188z
	 M156.746,378.451c-6.095,0.748-11.551-13.477-3.65-15.502C161.618,360.759,163.461,377.629,156.746,378.451z"/>
<path fill="#FFFFFF" d="M184.593,379.536c-0.046,0-0.119,0-0.191,0l-7.172-0.063l-0.064-7.227c0-0.073,0-0.146,0-0.191
	c0-0.073-0.009-0.256-0.182-0.256c-0.082,0-0.082,0-0.301,0.219l-0.849,0.849c-0.127,0.127-0.219,0.374-0.219,0.565l0.055,6.086
	c0,0.027-0.018,0.045-0.027,0.055s-0.027,0.027-0.064,0.027l-6.095-0.055c-0.201,0-0.438,0.091-0.566,0.219l-0.794,0.794
	c-0.219,0.219-0.219,0.219-0.219,0.301c0,0.183,0.183,0.183,0.255,0.183c0.046,0,0.119,0,0.192,0l7.171,0.063l0.064,7.227
	c0,0.073,0,0.146,0,0.191c0,0.082,0,0.246,0.173,0.256h0.009c0.083,0,0.083,0,0.301-0.22l0.794-0.793
	c0.127-0.128,0.219-0.374,0.219-0.566l-0.055-6.085c0-0.027,0.019-0.045,0.027-0.055c0.009-0.009,0.027-0.027,0.064-0.027
	l6.095,0.055c0.201,0,0.438-0.091,0.566-0.219l0.849-0.848c0.219-0.219,0.219-0.219,0.219-0.301
	C184.848,379.536,184.675,379.536,184.593,379.536z"/>
</svg>
