<?xml version="1.0" encoding="utf-8"?>
<!-- Generator: Adobe Illustrator 16.0.4, SVG Export Plug-In . SVG Version: 6.00 Build 0)  -->
<!DOCTYPE svg PUBLIC "-//W3C//DTD SVG 1.1//EN" "http://www.w3.org/Graphics/SVG/1.1/DTD/svg11.dtd">
<svg version="1.1" id="Ebene_1" xmlns="http://www.w3.org/2000/svg" xmlns:xlink="http://www.w3.org/1999/xlink" x="0px" y="0px"
	 width="50px" height="100px" viewBox="0 0 50 100" enable-background="new 0 0 50 100" xml:space="preserve">
<g>
	<path fill="#FFFFFF" d="M24.763,8.621c-0.283,2.52-0.301,5.083-0.456,7.865c-1.276,0-2.526,0-3.776,0c0,2.847,0,5.456,0,8.239
		c1.306,0,2.51,0,3.934,0c0,1.029,0,1.761,0,2.489c0,6.441,0.025,12.885-0.02,19.324c0,0.42,0.026,0.749,0.108,0.995
		c0.146,0,0.292,0.009,0.438,0.009c2.772,0,5.438-0.502,7.893-1.433c-0.055-6.423-0.027-12.849-0.027-19.279
		c0-0.646,0-1.296,0-2.153c1.891,0,3.549,0,5.312,0c0.229-2.837,0.446-5.465,0.687-8.349c-2.19,0-4.053,0-5.986,0
		c0-1.505-0.02-2.792,0-4.079c0.037-2.144,0.41-2.701,2.236-2.91c1.157-0.137,2.325-0.025,3.529-0.025c0-0.769,0-1.508,0-2.245
		C35.53,4.706,31.8,3.118,27.739,2.626C26.122,3.85,25.063,5.912,24.763,8.621z"/>
	<path fill="#FFFFFF" d="M42.673,7.317C37.956,2.6,31.678,0,25,0C18.321,0,12.044,2.602,7.327,7.327C2.6,12.044,0,18.322,0,25
		c0,6.679,2.601,12.957,7.327,17.673C12.053,47.401,18.33,50,25,50s12.956-2.601,17.673-7.327C47.399,37.946,50,31.669,50,25
		C50,18.329,47.399,12.043,42.673,7.317z M25,47.536c-12.427,0-22.537-10.109-22.537-22.537S12.573,2.462,25,2.462
		s22.537,10.109,22.537,22.537S37.427,47.536,25,47.536z"/>
</g>
<g>
	<path fill="#FFFFFF" d="M42.674,57.326C37.957,52.6,31.68,50,25,50c-6.679,0-12.956,2.6-17.673,7.326C2.601,62.043,0,68.32,0,75
		c0,6.678,2.601,12.955,7.327,17.672C12.053,97.398,18.331,100,25,100c6.68,0,12.957-2.602,17.674-7.328
		C47.4,87.947,49.999,81.669,49.999,75C50,68.33,47.4,62.043,42.674,57.326z M25,97.535C12.573,97.535,2.464,87.426,2.464,75
		c0-12.428,10.109-22.537,22.537-22.537c12.429,0,22.536,10.109,22.536,22.537C47.537,87.426,37.428,97.535,25,97.535z"/>
	<g>
		<path fill="#FFFFFF" d="M23.997,96.387c0.045-6.441,0.018-12.884,0.018-19.324c0-0.729,0-1.461,0-2.492c-1.423,0-2.628,0-3.933,0
			c0-2.782,0-5.393,0-8.237c1.25,0,2.5,0,3.777,0c0.155-2.783,0.173-5.338,0.457-7.865c0.228-2.079,0.903-3.769,1.944-5
			c-0.42-0.026-0.832-0.036-1.25-0.036c-11.907,0-21.561,9.652-21.561,21.561c0,11.568,9.115,21.014,20.557,21.541
			C23.997,96.486,23.997,96.441,23.997,96.387z"/>
		<path fill="#FFFFFF" d="M38.194,57.945c0,0.402,0,0.812,0,1.224c-1.205,0-2.373-0.108-3.531,0.026
			c-1.834,0.211-2.198,0.768-2.235,2.912c-0.019,1.285,0,2.572,0,4.078c1.926,0,3.795,0,5.985,0
			c-0.237,2.883-0.446,5.51-0.685,8.349c-1.762,0-3.432,0-5.312,0c0,0.856,0,1.505,0,2.153c0,6.186-0.026,12.381,0.027,18.565
			c8.249-3.028,14.124-10.948,14.124-20.246C46.561,68.064,43.285,61.889,38.194,57.945z"/>
	</g>
</g>
</svg>
