<?xml version="1.0" encoding="utf-8"?>
<!-- Generator: Adobe Illustrator 16.0.4, SVG Export Plug-In . SVG Version: 6.00 Build 0)  -->
<!DOCTYPE svg PUBLIC "-//W3C//DTD SVG 1.1//EN" "http://www.w3.org/Graphics/SVG/1.1/DTD/svg11.dtd">
<svg version="1.1" id="Ebene_1" xmlns="http://www.w3.org/2000/svg" xmlns:xlink="http://www.w3.org/1999/xlink" x="0px" y="0px"
	 width="50px" height="50px" viewBox="140.87 356.087 50 50" enable-background="new 140.87 356.087 50 50" xml:space="preserve">
<path fill="#FFFFFF" d="M183.543,363.405c-4.717-4.717-10.995-7.317-17.673-7.317s-12.956,2.6-17.673,7.327
	c-4.726,4.717-7.327,10.995-7.327,17.673c0,6.679,2.601,12.957,7.327,17.673c4.726,4.727,11.003,7.327,17.673,7.327
	s12.956-2.601,17.673-7.327c4.726-4.727,7.327-11.004,7.327-17.673C190.87,374.417,188.27,368.131,183.543,363.405z M165.87,403.624
	c-12.427,0-22.537-10.109-22.537-22.537s10.11-22.537,22.537-22.537c12.427,0,22.537,10.109,22.537,22.537
	S178.297,403.624,165.87,403.624z"/>
<path fill="#FFFFFF" d="M172.138,367.383c-0.018,0.019-0.055,0.055-0.055,0.055c-0.055-0.037-0.018-0.073,0.019-0.101
	C172.111,367.347,172.12,367.365,172.138,367.383z"/>
<g>
	<path fill="#FFFFFF" d="M160.104,396.397c-4.033,0-7.783-1.186-10.939-3.212c0.557,0.064,1.122,0.101,1.706,0.101
		c3.349,0,6.423-1.141,8.869-3.057c-3.121-0.055-5.757-2.126-6.67-4.954c0.438,0.082,0.885,0.128,1.341,0.128
		c0.648,0,1.277-0.092,1.88-0.247c-3.267-0.656-5.73-3.54-5.73-6.998c0-0.027,0-0.064,0-0.091c0.958,0.538,2.062,0.857,3.23,0.894
		c-1.917-1.277-3.175-3.467-3.175-5.94c0-1.305,0.356-2.536,0.967-3.585c3.521,4.315,8.777,7.162,14.717,7.454
		c-0.119-0.52-0.182-1.067-0.182-1.624c0-3.941,3.193-7.135,7.135-7.135c2.053,0,3.905,0.867,5.21,2.253
		c1.624-0.319,3.157-0.912,4.535-1.733c-0.529,1.669-1.661,3.065-3.139,3.951c1.441-0.173,2.819-0.557,4.097-1.123
		c-0.958,1.433-2.171,2.692-3.559,3.695c0.019,0.311,0.019,0.611,0.019,0.922C180.414,385.513,173.242,396.397,160.104,396.397"/>
</g>
</svg>
