<?xml version="1.0" encoding="utf-8"?>
<!-- Generator: Adobe Illustrator 16.0.4, SVG Export Plug-In . SVG Version: 6.00 Build 0)  -->
<!DOCTYPE svg PUBLIC "-//W3C//DTD SVG 1.1//EN" "http://www.w3.org/Graphics/SVG/1.1/DTD/svg11.dtd">
<svg version="1.1" id="Ebene_1" xmlns="http://www.w3.org/2000/svg" xmlns:xlink="http://www.w3.org/1999/xlink" x="0px" y="0px"
	 width="50px" height="50px" viewBox="140.87 356.087 50 50" enable-background="new 140.87 356.087 50 50" xml:space="preserve">
<path fill="#FFFFFF" d="M165.633,364.709c-0.283,2.519-0.301,5.083-0.456,7.865c-1.277,0-2.527,0-3.777,0c0,2.847,0,5.456,0,8.239
	c1.305,0,2.509,0,3.933,0c0,1.031,0,1.761,0,2.491c0,6.441,0.027,12.883-0.019,19.324c0,0.42,0.027,0.749,0.109,0.995
	c0.146,0,0.292,0.009,0.438,0.009c2.774,0,5.438-0.502,7.893-1.433c-0.055-6.423-0.027-12.847-0.027-19.279c0-0.648,0-1.296,0-2.153
	c1.889,0,3.549,0,5.31,0c0.228-2.837,0.447-5.465,0.685-8.349c-2.19,0-4.051,0-5.986,0c0-1.505-0.018-2.792,0-4.079
	c0.037-2.144,0.411-2.701,2.236-2.91c1.159-0.137,2.327-0.027,3.531-0.027c0-0.767,0-1.506,0-2.245
	c-3.102-2.363-6.834-3.951-10.894-4.443C166.992,359.938,165.934,362,165.633,364.709z"/>
<path fill="#FFFFFF" d="M183.543,363.405c-4.717-4.717-10.995-7.317-17.673-7.317s-12.956,2.6-17.673,7.327
	c-4.726,4.717-7.327,10.995-7.327,17.673c0,6.679,2.601,12.957,7.327,17.673c4.726,4.727,11.003,7.327,17.673,7.327
	s12.956-2.601,17.673-7.327c4.726-4.727,7.327-11.004,7.327-17.673C190.87,374.417,188.27,368.131,183.543,363.405z M165.87,403.624
	c-12.427,0-22.537-10.109-22.537-22.537s10.11-22.537,22.537-22.537c12.427,0,22.537,10.109,22.537,22.537
	S178.297,403.624,165.87,403.624z"/>
</svg>
