<?xml version="1.0" encoding="utf-8"?>
<!-- Generator: Adobe Illustrator 16.0.4, SVG Export Plug-In . SVG Version: 6.00 Build 0)  -->
<!DOCTYPE svg PUBLIC "-//W3C//DTD SVG 1.1//EN" "http://www.w3.org/Graphics/SVG/1.1/DTD/svg11.dtd">
<svg version="1.1" id="Ebene_1" xmlns="http://www.w3.org/2000/svg" xmlns:xlink="http://www.w3.org/1999/xlink" x="0px" y="0px"
	 width="50px" height="100px" viewBox="0 0 50 100" enable-background="new 0 0 50 100" xml:space="preserve">
<g>
	<path fill="#FFFFFF" d="M31.269,11.295c-0.019,0.02-0.056,0.055-0.056,0.055c-0.056-0.036-0.019-0.072,0.019-0.101
		C31.241,11.259,31.25,11.277,31.269,11.295z"/>
	<g>
		<path fill="#FFFFFF" d="M24.937,45.52c-3.796,0-7.592,0-11.377,0c-2.839,0-5.238-2.1-5.621-4.918
			c-0.056-0.43-0.102-0.877-0.102-1.306c-0.009-3.467,0-6.925-0.009-10.393c0-2.883,1.788-5.173,4.589-5.83
			c0.438-0.101,0.902-0.155,1.359-0.155c7.444-0.009,14.881-0.009,22.326,0c3.357,0,5.895,2.564,5.895,5.913
			c0,3.631-0.027,7.253,0.009,10.885c0.026,3.321-2.774,5.866-5.794,5.83C32.455,45.475,28.694,45.52,24.937,45.52z M27.664,31.104
			c-0.019-0.339-0.036-0.529-0.036-0.713c0-1.039,0.009-2.089-0.02-3.129c0-0.146-0.19-0.4-0.318-0.419
			c-0.465-0.055-0.939-0.019-1.424-0.019c0,4.771,0,9.462,0,14.188c0.558,0,1.078,0,1.598,0c0.046-0.265,0.091-0.492,0.146-0.84
			c0.154,0.191,0.219,0.273,0.283,0.355c0.766,1.104,2.162,1.059,2.811-0.118c0.21-0.374,0.365-0.803,0.429-1.231
			c0.365-2.163,0.302-4.344,0.082-6.506c-0.063-0.646-0.328-1.323-0.666-1.88c-0.547-0.903-1.726-0.938-2.444-0.173
			C27.993,30.748,27.883,30.866,27.664,31.104z M38.413,35.994c-0.146-1.396-0.184-2.71-0.447-3.987
			c-0.311-1.496-1.643-2.172-3.148-1.825c-1.44,0.329-1.971,1.479-2.043,2.829c-0.082,1.716-0.119,3.439,0.01,5.146
			c0.146,1.953,0.767,3.356,3.212,3.121c0.866-0.083,1.587-0.447,1.86-1.296c0.219-0.677,0.266-1.424,0.356-2.137
			c0.019-0.1-0.119-0.327-0.183-0.327c-0.457-0.019-0.922-0.056-1.352,0.055c-0.119,0.027-0.119,0.521-0.182,0.794
			c-0.028,0.109-0.064,0.21-0.092,0.319c-0.118,0.482-0.346,0.902-0.895,0.876c-0.538-0.027-0.785-0.466-0.839-0.939
			c-0.073-0.647-0.063-1.305-0.127-1.962c-0.046-0.502,0.127-0.685,0.64-0.666C36.194,36.013,37.198,35.994,38.413,35.994z
			 M23.969,41.021c0-3.551,0-7.044,0-10.558c-0.603,0-1.159,0-1.771,0c0,0.237,0,0.43,0,0.63c0,2.271,0.01,4.544-0.008,6.815
			c0,0.301-0.037,0.657-0.192,0.885c-0.146,0.219-0.474,0.42-0.722,0.42c-0.228,0-0.528-0.229-0.656-0.446
			c-0.137-0.229-0.146-0.558-0.146-0.85c-0.009-2.29-0.009-4.58-0.009-6.87c0-0.19-0.019-0.393-0.026-0.63
			c-0.42,0-0.795,0.027-1.149-0.009c-0.476-0.046-0.63,0.101-0.621,0.603c0.026,2.563,0.009,5.127,0.019,7.691
			c0,0.42,0.072,0.839,0.164,1.24c0.137,0.621,0.465,1.141,1.131,1.276c0.739,0.155,1.424,0.02,1.89-0.675
			c0.073-0.108,0.182-0.19,0.337-0.365c0.064,0.348,0.109,0.575,0.154,0.812C22.901,41.021,23.413,41.021,23.969,41.021z
			 M11.971,28.978c0.109,0.046,0.138,0.072,0.173,0.072c0.476,0.01,0.949,0.01,1.434,0.019c0.785,0,0.794,0.01,0.794,0.804
			c0,3.485,0,6.971,0,10.446c0,0.229,0.026,0.466,0.036,0.729c0.457,0,0.857-0.036,1.259,0.009c0.511,0.056,0.647-0.128,0.647-0.639
			c-0.019-3.576,0-7.152-0.019-10.721c0-0.476,0.137-0.666,0.621-0.639c0.557,0.036,1.112,0.009,1.651,0.009
			c0-0.812,0-1.515,0-2.244c-2.1,0-4.151-0.009-6.205,0.019c-0.127,0-0.355,0.237-0.364,0.374
			C11.942,27.791,11.971,28.375,11.971,28.978z"/>
		<path fill="#FFFFFF" d="M33.923,21.131c-0.018-0.347-0.027-0.593-0.045-0.958c-0.42,0.675-0.857,1.159-1.579,1.287
			c-1.358,0.246-2.509-0.575-2.546-2.089c-0.082-3.623-0.027-7.254-0.027-10.958c0.676,0,1.334-0.027,1.98,0.027
			c0.109,0.009,0.265,0.347,0.265,0.538c0.019,1.852,0.009,3.704,0.009,5.557c0,1.003,0,2.017,0.019,3.02
			c0,0.237,0.046,0.476,0.118,0.693c0.109,0.347,0.302,0.611,0.74,0.611c0.438,0,0.729-0.237,0.803-0.611
			c0.119-0.62,0.183-1.268,0.191-1.898c0.019-2.362,0.01-4.726,0.01-7.089c0-0.264,0.026-0.538,0.045-0.848
			c0.693,0,1.332-0.019,1.972,0.018c0.128,0.01,0.283,0.21,0.364,0.348c0.056,0.101,0.02,0.247,0.02,0.374
			c0,3.759-0.009,7.518,0.01,11.268c0,0.539-0.127,0.776-0.703,0.721C35.037,21.094,34.498,21.131,33.923,21.131z"/>
		<path fill="#FFFFFF" d="M18.339,10.383c0.593-1.942,1.168-3.74,1.688-5.557c0.155-0.529,0.383-0.757,0.949-0.712
			c0.604,0.046,1.205,0.009,1.926,0.009c-0.082,0.329-0.119,0.584-0.201,0.821c-0.985,2.883-1.98,5.757-2.956,8.631
			c-0.101,0.301-0.165,0.639-0.165,0.958c-0.018,1.961-0.01,3.923-0.01,5.885c0,0.219,0,0.429,0,0.675c-0.849,0-1.623,0-2.473,0
			c-0.009-0.19-0.027-0.383-0.027-0.574c0-1.579-0.045-3.157,0.01-4.727c0.046-1.231-0.191-2.373-0.611-3.521
			c-0.912-2.5-1.77-5.02-2.646-7.527c-0.2-0.584-0.182-0.611,0.447-0.621c0.493,0,0.995,0.027,1.487-0.009
			c0.493-0.036,0.703,0.146,0.849,0.621C17.135,6.569,17.719,8.385,18.339,10.383z"/>
		<path fill="#FFFFFF" d="M21.442,14.698c0.154-1.414,0.201-2.847,0.502-4.224c0.52-2.373,3.412-3.285,5.191-1.716
			c0.867,0.767,1.148,1.825,1.213,2.91c0.1,1.697,0.146,3.396,0.1,5.091c-0.018,0.903-0.182,1.825-0.446,2.684
			c-0.429,1.378-1.579,2.152-3.002,2.089c-1.323-0.055-2.5-0.476-2.956-2.208c-0.318-1.241-0.338-2.555-0.475-3.841
			c-0.027-0.255,0-0.512,0-0.767C21.524,14.707,21.478,14.707,21.442,14.698z M26.131,14.809c-0.019,0-0.037,0-0.056,0
			c0-0.821,0.027-1.652-0.008-2.474c-0.019-0.447-0.092-0.922-0.273-1.323c-0.119-0.255-0.502-0.528-0.775-0.528
			c-0.265,0-0.666,0.265-0.775,0.52c-0.191,0.42-0.266,0.913-0.274,1.378c-0.026,1.606-0.026,3.222,0,4.836
			c0.009,0.411,0.056,0.857,0.237,1.224c0.154,0.301,0.484,0.646,0.794,0.711c0.411,0.091,0.721-0.283,0.866-0.685
			c0.047-0.119,0.102-0.236,0.109-0.364C26.03,16.997,26.086,15.903,26.131,14.809z"/>
		<path fill="#FFFFFF" d="M29.608,35.693c-0.02,0-0.037,0-0.056,0c0-0.42,0.027-0.84-0.009-1.26
			c-0.046-0.558-0.109-1.122-0.219-1.671c-0.073-0.347-0.283-0.629-0.711-0.639c-0.42-0.009-0.648,0.247-0.758,0.594
			c-0.119,0.355-0.228,0.739-0.236,1.113c-0.018,1.441-0.027,2.883,0.018,4.324c0.02,0.739,0.438,1.214,0.949,1.214
			c0.465-0.009,0.803-0.438,0.867-1.204C29.526,37.326,29.562,36.505,29.608,35.693z"/>
		<path fill="#FFFFFF" d="M29.608,35.693c-0.056,0.819-0.084,1.642-0.155,2.454c-0.073,0.774-0.401,1.204-0.867,1.204
			c-0.502,0.01-0.931-0.466-0.949-1.215c-0.036-1.44-0.036-2.883-0.019-4.323c0.01-0.374,0.119-0.748,0.238-1.113
			c0.108-0.347,0.336-0.604,0.756-0.593c0.438,0.009,0.64,0.292,0.711,0.639c0.119,0.547,0.174,1.113,0.22,1.67
			c0.036,0.419,0.009,0.839,0.009,1.259C29.571,35.684,29.589,35.693,29.608,35.693z"/>
		<path fill="#FFFFFF" d="M35.476,34.406c-0.996,0-1.078-0.091-0.949-1.104c0.037-0.302,0.037-0.666,0.209-0.886
			c0.184-0.237,0.539-0.465,0.821-0.465c0.246,0,0.64,0.273,0.712,0.511c0.164,0.511,0.172,1.067,0.2,1.605
			c0.009,0.101-0.2,0.282-0.347,0.318C35.922,34.443,35.692,34.406,35.476,34.406z"/>
	</g>
	<path fill="#FFFFFF" d="M42.673,7.317C37.956,2.6,31.678,0,25,0C18.321,0,12.044,2.601,7.327,7.327C2.601,12.044,0,18.322,0,25
		c0,6.679,2.601,12.957,7.327,17.673C12.053,47.4,18.33,50,25,50s12.956-2.601,17.673-7.327C47.399,37.946,50,31.669,50,25
		C50,18.329,47.399,12.043,42.673,7.317z M25,47.536c-12.427,0-22.537-10.109-22.537-22.537S12.573,2.462,25,2.462
		s22.537,10.109,22.537,22.537S37.427,47.536,25,47.536z"/>
</g>
<path fill="#FFFFFF" d="M42.674,57.326C37.956,52.601,31.679,50,25,50s-12.956,2.601-17.673,7.326C2.601,62.044,0,68.321,0,75
	c0,6.68,2.601,12.957,7.327,17.674C12.053,97.4,18.33,100,25,100c6.679,0,12.956-2.6,17.674-7.326C47.399,87.947,50,81.67,50,75
	S47.399,62.044,42.674,57.326z M25,97.537C12.573,97.537,2.463,87.428,2.463,75S12.573,52.463,25,52.463
	c12.427,0,22.537,10.109,22.537,22.537S37.427,97.537,25,97.537z"/>
<g>
	<path fill="#FFFFFF" d="M24.233,69.023c0.146,0.283,0.457,0.611,0.749,0.676c0.392,0.082,0.674-0.266,0.821-0.648
		c0.046-0.109,0.092-0.229,0.101-0.346c0.055-1.031,0.101-2.062,0.155-3.094c-0.019,0-0.027,0-0.046,0
		c0-0.775,0.027-1.561-0.009-2.336c-0.019-0.42-0.082-0.876-0.265-1.25c-0.118-0.237-0.475-0.502-0.73-0.502
		c-0.256,0-0.63,0.256-0.739,0.493c-0.183,0.392-0.255,0.857-0.255,1.296c-0.027,1.523-0.027,3.038,0,4.562
		C24.015,68.258,24.06,68.686,24.233,69.023z"/>
	<path fill="#FFFFFF" d="M8.777,88.713c-0.009-3.266,0-6.541,0-9.807c0-2.721,1.688-4.883,4.334-5.512
		c0.42-0.101,0.857-0.146,1.277-0.146c7.025-0.009,14.051-0.009,21.067,0c3.166,0,5.565,2.418,5.565,5.576
		c0,3.42-0.018,6.852,0.01,10.273c0,0.109,0,0.219-0.01,0.318c3.44-3.822,5.529-8.877,5.529-14.426
		c0-11.906-9.652-21.56-21.56-21.56c-3.312,0-6.46,0.748-9.261,2.089c0.173,0,0.347,0,0.52-0.018
		c0.465-0.037,0.666,0.137,0.794,0.584c0.511,1.733,1.058,3.449,1.642,5.338c0.557-1.834,1.104-3.531,1.588-5.246
		c0.146-0.502,0.355-0.722,0.894-0.676c0.565,0.045,1.131,0.009,1.815,0.009c-0.073,0.311-0.119,0.548-0.191,0.776
		c-0.931,2.719-1.871,5.428-2.792,8.146c-0.101,0.293-0.155,0.604-0.155,0.904c-0.018,1.852-0.009,3.704-0.009,5.557
		c0,0.2,0,0.4,0,0.639c-0.803,0-1.533,0-2.336,0c-0.009-0.183-0.027-0.365-0.027-0.548c0-1.487-0.045-2.975,0.009-4.462
		c0.045-1.158-0.183-2.244-0.575-3.32c-0.857-2.327-1.651-4.682-2.463-7.025C7.883,59.881,3.431,66.916,3.431,75
		c0,5.457,2.025,10.438,5.365,14.234C8.787,89.061,8.777,88.887,8.777,88.713z M29.443,59.571c0.639,0,1.26-0.027,1.871,0.027
		c0.1,0.009,0.246,0.329,0.255,0.511c0.019,1.742,0.009,3.494,0.009,5.237c0,0.948,0,1.907,0.01,2.856
		c0,0.219,0.045,0.446,0.109,0.656c0.109,0.328,0.292,0.574,0.693,0.584c0.42,0,0.684-0.229,0.758-0.574
		c0.109-0.584,0.173-1.195,0.182-1.798c0.019-2.235,0.01-4.462,0.01-6.697c0-0.255,0.027-0.511,0.045-0.803
		c0.657,0,1.26-0.019,1.861,0.019c0.128,0.009,0.265,0.191,0.348,0.328c0.055,0.092,0.018,0.237,0.018,0.355
		c0,3.55-0.01,7.09,0.01,10.639c0,0.502-0.119,0.73-0.666,0.685c-0.494-0.046-0.995-0.009-1.543-0.009
		c-0.018-0.32-0.027-0.557-0.045-0.904c-0.393,0.64-0.812,1.096-1.496,1.223c-1.287,0.229-2.363-0.537-2.4-1.971
		C29.389,66.496,29.443,63.066,29.443,59.571z M22.099,61.515c0.493-2.235,3.221-3.103,4.899-1.615
		c0.821,0.722,1.086,1.725,1.141,2.747c0.092,1.596,0.137,3.202,0.101,4.809c-0.019,0.848-0.173,1.715-0.429,2.527
		c-0.402,1.305-1.487,2.034-2.829,1.971c-1.25-0.055-2.363-0.447-2.792-2.09c-0.301-1.168-0.311-2.408-0.447-3.623
		c-0.027-0.236,0-0.482,0-0.729c-0.037,0-0.082-0.009-0.119-0.009C21.77,64.17,21.807,62.811,22.099,61.515z"/>
	<path fill="#FFFFFF" d="M34.599,85.594c0.948,0.035,1.897,0.008,3.038,0.008c-0.137-1.312-0.174-2.562-0.42-3.758
		c-0.291-1.414-1.551-2.053-2.975-1.725c-1.359,0.311-1.861,1.396-1.925,2.664c-0.082,1.615-0.118,3.248,0.009,4.854
		c0.137,1.844,0.721,3.166,3.029,2.947c0.822-0.082,1.496-0.428,1.762-1.223c0.209-0.639,0.246-1.342,0.338-2.016
		c0.008-0.102-0.11-0.311-0.174-0.311c-0.43-0.018-0.876-0.055-1.277,0.045c-0.109,0.027-0.119,0.492-0.174,0.748
		c-0.018,0.102-0.055,0.201-0.082,0.301c-0.109,0.457-0.328,0.85-0.84,0.832c-0.502-0.02-0.738-0.439-0.793-0.887
		c-0.073-0.611-0.064-1.23-0.119-1.852C33.951,85.748,34.115,85.574,34.599,85.594z M33.979,83.066
		c0.036-0.283,0.036-0.631,0.191-0.84c0.174-0.229,0.511-0.438,0.775-0.438c0.237,0,0.602,0.264,0.676,0.482
		c0.154,0.484,0.164,1.004,0.191,1.516c0.009,0.1-0.191,0.264-0.32,0.301c-0.191,0.055-0.41,0.01-0.62,0.01
		C33.933,84.105,33.851,84.016,33.979,83.066z"/>
	<path fill="#FFFFFF" d="M19.024,88.176c0,0.393,0.063,0.793,0.155,1.176c0.128,0.594,0.438,1.078,1.068,1.215
		c0.702,0.145,1.341,0.018,1.779-0.639c0.064-0.102,0.173-0.184,0.319-0.348c0.064,0.32,0.11,0.549,0.146,0.768
		c0.511,0,0.995,0,1.515,0c0-3.35,0-6.643,0-9.965c-0.565,0-1.085,0-1.669,0c0,0.219,0,0.412,0,0.594
		c0,2.145,0.009,4.289-0.009,6.432c0,0.283-0.027,0.621-0.173,0.84c-0.137,0.201-0.447,0.393-0.685,0.393
		c-0.209,0-0.501-0.219-0.62-0.42c-0.128-0.219-0.137-0.529-0.137-0.803c-0.009-2.162-0.009-4.324-0.009-6.486
		c0-0.184-0.018-0.365-0.027-0.594c-0.401,0-0.748,0.027-1.086-0.01c-0.447-0.045-0.593,0.102-0.593,0.566
		C19.033,83.33,19.015,85.758,19.024,88.176z"/>
	<path fill="#FFFFFF" d="M24.927,94.59c-2.984,0-5.967,0-8.951,0c2.747,1.268,5.803,1.971,9.024,1.971s6.287-0.711,9.033-1.98
		C30.994,94.562,27.956,94.59,24.927,94.59z"/>
	<path fill="#FFFFFF" d="M17.345,79.051c0.529,0.027,1.049,0.01,1.561,0.01c0-0.766,0-1.424,0-2.117c-1.989,0-3.923-0.01-5.858,0.02
		c-0.119,0-0.337,0.227-0.347,0.355c-0.037,0.547-0.018,1.104-0.018,1.66c0.1,0.045,0.127,0.064,0.164,0.064
		c0.447,0.008,0.903,0.008,1.351,0.018c0.739,0,0.748,0.01,0.748,0.758c0,3.283,0,6.578,0,9.863c0,0.219,0.018,0.438,0.037,0.693
		c0.429,0,0.812-0.027,1.186,0.008c0.483,0.047,0.611-0.127,0.611-0.602c-0.019-3.375,0-6.752-0.019-10.119
		C16.752,79.197,16.879,79.023,17.345,79.051z"/>
	<path fill="#FFFFFF" d="M27.445,77.354c0-0.137-0.183-0.383-0.301-0.391c-0.438-0.047-0.885-0.02-1.342-0.02
		c0,4.498,0,8.934,0,13.395c0.521,0,1.014,0,1.506,0c0.045-0.246,0.082-0.465,0.146-0.793c0.146,0.182,0.209,0.254,0.264,0.336
		c0.73,1.041,2.044,0.996,2.655-0.109c0.192-0.355,0.337-0.756,0.411-1.158c0.337-2.043,0.282-4.096,0.082-6.141
		c-0.064-0.611-0.311-1.25-0.63-1.77c-0.511-0.85-1.634-0.885-2.309-0.164c-0.109,0.117-0.219,0.236-0.419,0.455
		c-0.02-0.318-0.037-0.492-0.037-0.674C27.455,79.324,27.473,78.34,27.445,77.354z M27.683,82.5
		c0.101-0.328,0.319-0.566,0.712-0.557c0.41,0.01,0.602,0.273,0.675,0.602c0.109,0.521,0.164,1.051,0.21,1.58
		c0.036,0.393,0.009,0.793,0.009,1.195c0.019,0,0.036,0,0.056,0c-0.047,0.775-0.083,1.551-0.146,2.316
		c-0.064,0.73-0.383,1.131-0.821,1.141c-0.475,0.01-0.876-0.438-0.894-1.141c-0.037-1.359-0.037-2.719-0.02-4.088
		C27.463,83.203,27.573,82.838,27.683,82.5z"/>
</g>
</svg>
