<?xml version="1.0" encoding="utf-8"?>
<!-- Generator: Adobe Illustrator 16.0.4, SVG Export Plug-In . SVG Version: 6.00 Build 0)  -->
<!DOCTYPE svg PUBLIC "-//W3C//DTD SVG 1.1//EN" "http://www.w3.org/Graphics/SVG/1.1/DTD/svg11.dtd">
<svg version="1.1" id="Ebene_1" xmlns="http://www.w3.org/2000/svg" xmlns:xlink="http://www.w3.org/1999/xlink" x="0px" y="0px"
	 width="50px" height="100px" viewBox="0 0 50 100" enable-background="new 0 0 50 100" xml:space="preserve">
<path fill="#FFFFFF" d="M42.673,7.317C37.956,2.6,31.678,0,25,0C18.321,0,12.044,2.601,7.327,7.327C2.601,12.044,0,18.322,0,25
	c0,6.679,2.601,12.957,7.327,17.673C12.053,47.4,18.33,50,25,50s12.956-2.601,17.673-7.327C47.399,37.946,50,31.669,50,25
	C50,18.329,47.399,12.043,42.673,7.317z M25,47.536c-12.427,0-22.537-10.109-22.537-22.537S12.573,2.462,25,2.462
	s22.537,10.109,22.537,22.537S37.427,47.536,25,47.536z"/>
<path fill="#FFFFFF" d="M19.526,25.1c4.689-3.221,9.937-13.896,3.192-19.15c2.399-0.027,4.745-0.119,5.476-1.825
	c-5.539-0.337-11.178-0.401-15.748,0.603C8.03,7.463,4.59,11.587,2.711,16.487c0.465,4.652,3.741,8.723,10.885,8.157
	c-0.073,2.354,2.007,4.471,1.369,5.931c-4.954-0.958-9.379,0.62-12.126,3.294c0.675,1.697,1.551,3.303,2.583,4.781
	c0.31-3.367,2.772-4.918,6.351-5.794c6.86-1.697,11.988,0.573,12.309,5.475c0.337,5.082-5.356,7.81-10.539,7.618
	c1.898,1.04,3.951,1.834,6.113,2.327c2.408-0.693,4.488-1.743,5.793-3.111C32.692,37.627,24.507,30.2,19.526,25.1z M15.876,22.363
	C9.78,23.111,4.325,8.886,12.226,6.861C20.748,4.671,22.591,21.541,15.876,22.363z"/>
<path fill="#FFFFFF" d="M43.723,23.448c-0.046,0-0.118,0-0.19,0l-7.172-0.063l-0.064-7.227c0-0.073,0-0.146,0-0.191
	c0-0.072-0.009-0.256-0.182-0.256c-0.082,0-0.082,0-0.301,0.219l-0.85,0.85c-0.127,0.127-0.219,0.374-0.219,0.564L34.8,23.43
	c0,0.027-0.018,0.046-0.027,0.056c-0.009,0.01-0.026,0.026-0.063,0.026l-6.095-0.055c-0.201,0-0.438,0.091-0.566,0.219l-0.794,0.794
	c-0.219,0.22-0.219,0.22-0.219,0.302c0,0.183,0.183,0.183,0.255,0.183c0.046,0,0.119,0,0.191,0l7.172,0.063l0.063,7.227
	c0,0.073,0,0.146,0,0.191c0,0.082,0,0.245,0.173,0.256h0.01c0.082,0,0.082,0,0.301-0.221l0.794-0.793
	c0.127-0.128,0.219-0.374,0.219-0.565l-0.056-6.085c0-0.027,0.02-0.045,0.027-0.056c0.01-0.009,0.027-0.026,0.064-0.026L42.344,25
	c0.201,0,0.438-0.091,0.566-0.219l0.849-0.848c0.219-0.22,0.219-0.22,0.219-0.302C43.978,23.448,43.805,23.448,43.723,23.448z"/>
<g>
	<path fill="#FFFFFF" d="M42.674,57.326C37.957,52.6,31.68,50,25,50c-6.678,0-12.956,2.6-17.673,7.326C2.601,62.044,0,68.321,0,75
		s2.601,12.956,7.327,17.673C12.053,97.399,18.331,100,25,100c6.68,0,12.958-2.601,17.674-7.327C47.4,87.947,50,81.67,50,75
		S47.4,62.044,42.674,57.326z M25,97.536C12.573,97.536,2.463,87.427,2.463,75S12.573,52.463,25,52.463
		c12.428,0,22.538,10.11,22.538,22.537S37.428,97.536,25,97.536z"/>
	<g>
		<path fill="#FFFFFF" d="M17.181,79.973c0.639-1.46-1.441-3.577-1.369-5.931c-6.679,0.529-9.973-2.983-10.757-7.245
			C4.015,69.324,3.44,72.099,3.44,75c0,2.92,0.584,5.702,1.633,8.248C7.81,80.584,12.235,79.015,17.181,79.973z"/>
		<path fill="#FFFFFF" d="M26.297,87.719c-0.32-4.899-5.448-7.172-12.31-5.475c-3.495,0.867-5.931,2.363-6.323,5.575
			c2.5,3.376,5.967,5.994,9.991,7.454C22.236,94.836,26.588,92.189,26.297,87.719z"/>
		<path fill="#FFFFFF" d="M18.093,71.761c6.715-0.821,4.872-17.691-3.65-15.502c-0.073,0.019-0.146,0.036-0.21,0.055
			c-0.931,0.538-1.825,1.149-2.664,1.815C8.349,62.573,12.993,72.391,18.093,71.761z"/>
		<path fill="#FFFFFF" d="M30.092,54.041c-0.959,1.195-3.029,1.278-5.156,1.306c6.744,5.255,1.498,15.931-3.193,19.151
			c4.982,5.101,13.175,12.536,5.931,20.063c-0.74,0.767-1.725,1.442-2.875,2.008c0.073,0,0.137,0,0.21,0
			c11.907,0,21.559-9.653,21.559-21.561C46.561,64.845,39.543,56.332,30.092,54.041z M43.932,74.179
			c-0.127,0.128-0.363,0.219-0.564,0.219l-6.096-0.055c-0.027,0-0.055,0.019-0.062,0.027c-0.01,0.009-0.029,0.027-0.029,0.055
			l0.057,6.086c0,0.201-0.092,0.447-0.221,0.565l-0.793,0.794c-0.219,0.219-0.219,0.219-0.301,0.219h-0.01
			c-0.174-0.009-0.174-0.173-0.174-0.255c0-0.046,0-0.119,0-0.191l-0.062-7.227l-7.172-0.064c-0.072,0-0.146,0-0.191,0
			c-0.072,0-0.256-0.009-0.256-0.182c0-0.083,0-0.083,0.219-0.302l0.795-0.794c0.127-0.127,0.363-0.219,0.564-0.219l6.096,0.055
			c0.027,0,0.055-0.018,0.062-0.027c0.01-0.009,0.027-0.027,0.027-0.055l-0.055-6.086c0-0.2,0.092-0.447,0.221-0.565l0.848-0.849
			c0.219-0.219,0.219-0.219,0.301-0.219c0.184,0,0.184,0.183,0.184,0.255c0,0.046,0,0.119,0,0.192l0.062,7.226l7.172,0.064
			c0.072,0,0.146,0,0.191,0c0.074,0,0.256,0.009,0.256,0.183c0,0.082,0,0.082-0.219,0.301L43.932,74.179z"/>
	</g>
</g>
</svg>
