<?xml version="1.0" encoding="utf-8"?>
<!-- Generator: Adobe Illustrator 16.0.4, SVG Export Plug-In . SVG Version: 6.00 Build 0)  -->
<!DOCTYPE svg PUBLIC "-//W3C//DTD SVG 1.1//EN" "http://www.w3.org/Graphics/SVG/1.1/DTD/svg11.dtd">
<svg version="1.1" id="Ebene_1" xmlns="http://www.w3.org/2000/svg" xmlns:xlink="http://www.w3.org/1999/xlink" x="0px" y="0px"
	 width="50px" height="100px" viewBox="0 0 50 100" enable-background="new 0 0 50 100" xml:space="preserve">
<g>
	<path fill="#FFFFFF" d="M42.673,7.317C37.956,2.6,31.678,0,25,0C18.321,0,12.044,2.601,7.327,7.327C2.601,12.044,0,18.322,0,25
		c0,6.679,2.601,12.957,7.327,17.673C12.053,47.4,18.33,50,25,50s12.956-2.601,17.673-7.327C47.399,37.946,50,31.669,50,25
		C50,18.329,47.399,12.043,42.673,7.317z M25,47.536c-12.427,0-22.537-10.109-22.537-22.537S12.573,2.462,25,2.462
		s22.537,10.109,22.537,22.537S37.427,47.536,25,47.536z"/>
	<path fill="#FFFFFF" d="M31.269,11.295c-0.019,0.02-0.056,0.055-0.056,0.055c-0.056-0.036-0.019-0.072,0.019-0.101
		C31.241,11.259,31.25,11.277,31.269,11.295z"/>
	<g>
		<path fill="#FFFFFF" d="M19.233,40.31c-4.033,0-7.783-1.187-10.938-3.213c0.558,0.064,1.122,0.102,1.706,0.102
			c3.35,0,6.423-1.142,8.869-3.058c-3.121-0.055-5.758-2.126-6.67-4.953c0.438,0.082,0.885,0.128,1.341,0.128
			c0.647,0,1.276-0.093,1.88-0.247c-3.268-0.656-5.73-3.54-5.73-6.998c0-0.027,0-0.064,0-0.091c0.959,0.538,2.062,0.856,3.23,0.894
			c-1.917-1.277-3.175-3.467-3.175-5.939c0-1.306,0.356-2.536,0.967-3.586c3.521,4.315,8.776,7.162,14.717,7.454
			c-0.118-0.52-0.182-1.066-0.182-1.624c0-3.94,3.192-7.135,7.135-7.135c2.054,0,3.905,0.867,5.21,2.253
			c1.624-0.318,3.157-0.912,4.535-1.732c-0.529,1.669-1.661,3.064-3.139,3.95c1.44-0.173,2.818-0.557,4.097-1.123
			c-0.958,1.434-2.171,2.692-3.56,3.695c0.02,0.312,0.02,0.611,0.02,0.922C39.544,29.425,32.372,40.31,19.233,40.31"/>
	</g>
</g>
<g>
	<path fill="#FFFFFF" d="M31.177,61.149c-0.019,0.019-0.055,0.055-0.055,0.055c-0.055-0.036-0.019-0.073,0.019-0.101
		C31.149,61.113,31.158,61.131,31.177,61.149z"/>
	<path fill="#FFFFFF" d="M42.674,57.326C37.955,52.6,31.679,50,25,50s-12.956,2.6-17.673,7.326C2.601,62.043,0,68.32,0,75
		c0,6.678,2.601,12.955,7.327,17.673C12.053,97.399,18.33,100,25,100c6.679,0,12.955-2.601,17.674-7.327
		C47.398,87.947,50,81.67,50,75S47.398,62.043,42.674,57.326z M25,97.536C12.573,97.536,2.463,87.427,2.463,75
		c0-12.428,10.11-22.537,22.537-22.537c12.428,0,22.537,10.109,22.537,22.537C47.537,87.427,37.428,97.536,25,97.536z"/>
	<path fill="#FFFFFF" d="M25,53.439C13.093,53.439,3.44,63.093,3.44,75c0,11.906,9.653,21.56,21.56,21.56
		c11.906,0,21.561-9.653,21.561-21.56C46.561,63.093,36.906,53.439,25,53.439z M37.838,70.173c0.008,0.255,0.018,0.521,0.018,0.775
		c0,7.947-6.049,17.108-17.107,17.108c-3.394,0-6.56-0.995-9.215-2.701c0.475,0.055,0.949,0.082,1.433,0.082
		c2.819,0,5.411-0.958,7.473-2.573c-2.628-0.046-4.854-1.788-5.621-4.179c0.365,0.073,0.749,0.109,1.131,0.109
		c0.548,0,1.077-0.072,1.588-0.209c-2.755-0.557-4.827-2.984-4.827-5.895c0-0.027,0-0.055,0-0.073
		c0.812,0.447,1.733,0.721,2.728,0.748c-1.615-1.077-2.673-2.919-2.673-5.009c0-1.104,0.301-2.135,0.812-3.021
		c2.965,3.641,7.399,6.031,12.4,6.286c-0.101-0.438-0.155-0.902-0.155-1.368c0-3.321,2.691-6.013,6.013-6.013
		c1.732,0,3.293,0.73,4.389,1.898c1.369-0.274,2.654-0.768,3.822-1.461c-0.447,1.406-1.404,2.582-2.646,3.331
		c1.215-0.146,2.373-0.466,3.459-0.949C40.027,68.266,39.006,69.324,37.838,70.173z"/>
</g>
</svg>
