<?xml version="1.0" encoding="utf-8"?>
<!-- Generator: Adobe Illustrator 16.0.4, SVG Export Plug-In . SVG Version: 6.00 Build 0)  -->
<!DOCTYPE svg PUBLIC "-//W3C//DTD SVG 1.1//EN" "http://www.w3.org/Graphics/SVG/1.1/DTD/svg11.dtd">
<svg version="1.1" id="Ebene_1" xmlns="http://www.w3.org/2000/svg" xmlns:xlink="http://www.w3.org/1999/xlink" x="0px" y="0px"
	 width="50px" height="50px" viewBox="140.87 356.087 50 50" enable-background="new 140.87 356.087 50 50" xml:space="preserve">
<path fill="#FFFFFF" d="M172.138,367.383c-0.018,0.019-0.055,0.055-0.055,0.055c-0.055-0.037-0.018-0.073,0.019-0.101
	C172.111,367.347,172.12,367.365,172.138,367.383z"/>
<g>
	<path fill="#FFFFFF" d="M165.806,401.607c-3.795,0-7.591,0-11.377,0c-2.838,0-5.237-2.099-5.621-4.918
		c-0.055-0.429-0.101-0.876-0.101-1.305c-0.009-3.467,0-6.925-0.009-10.393c0-2.883,1.788-5.173,4.589-5.83
		c0.438-0.1,0.903-0.155,1.359-0.155c7.445-0.009,14.881-0.009,22.327,0c3.357,0,5.894,2.564,5.894,5.913
		c0,3.631-0.027,7.253,0.009,10.885c0.027,3.321-2.774,5.866-5.794,5.83C173.325,401.562,169.565,401.607,165.806,401.607z
		 M168.534,387.191c-0.018-0.338-0.036-0.529-0.036-0.712c0-1.04,0.009-2.089-0.019-3.129c0-0.146-0.191-0.401-0.319-0.419
		c-0.465-0.055-0.939-0.019-1.423-0.019c0,4.772,0,9.462,0,14.188c0.557,0,1.077,0,1.597,0c0.046-0.265,0.091-0.493,0.146-0.84
		c0.155,0.191,0.219,0.273,0.283,0.355c0.767,1.104,2.163,1.059,2.811-0.118c0.21-0.374,0.365-0.803,0.429-1.231
		c0.365-2.163,0.301-4.344,0.082-6.506c-0.064-0.647-0.328-1.323-0.666-1.88c-0.547-0.903-1.725-0.939-2.445-0.173
		C168.863,386.836,168.753,386.954,168.534,387.191z M179.283,392.082c-0.146-1.396-0.183-2.71-0.447-3.987
		c-0.31-1.496-1.643-2.172-3.148-1.825c-1.441,0.329-1.971,1.479-2.043,2.829c-0.083,1.715-0.119,3.439,0.009,5.146
		c0.146,1.953,0.767,3.357,3.212,3.121c0.867-0.083,1.587-0.447,1.861-1.296c0.219-0.676,0.265-1.424,0.356-2.136
		c0.018-0.1-0.119-0.328-0.183-0.328c-0.457-0.018-0.922-0.055-1.351,0.055c-0.119,0.027-0.119,0.521-0.182,0.794
		c-0.028,0.109-0.064,0.21-0.091,0.319c-0.119,0.483-0.347,0.903-0.895,0.876c-0.538-0.027-0.785-0.465-0.839-0.939
		c-0.073-0.648-0.064-1.305-0.127-1.962c-0.046-0.502,0.127-0.685,0.639-0.666C177.065,392.101,178.069,392.082,179.283,392.082z
		 M164.839,397.109c0-3.55,0-7.044,0-10.557c-0.602,0-1.159,0-1.77,0c0,0.237,0,0.429,0,0.63c0,2.271,0.009,4.544-0.009,6.815
		c0,0.301-0.037,0.657-0.192,0.885c-0.146,0.219-0.474,0.42-0.721,0.42c-0.228,0-0.529-0.229-0.657-0.447
		c-0.137-0.228-0.146-0.557-0.146-0.849c-0.009-2.29-0.009-4.58-0.009-6.87c0-0.191-0.018-0.393-0.027-0.63
		c-0.42,0-0.794,0.027-1.149-0.009c-0.475-0.046-0.63,0.101-0.621,0.603c0.027,2.563,0.009,5.127,0.018,7.691
		c0,0.42,0.073,0.839,0.165,1.24c0.137,0.621,0.465,1.141,1.131,1.277c0.739,0.155,1.423,0.019,1.889-0.675
		c0.073-0.109,0.182-0.191,0.337-0.365c0.064,0.347,0.109,0.575,0.155,0.812C163.771,397.109,164.283,397.109,164.839,397.109z
		 M152.841,385.065c0.109,0.046,0.137,0.073,0.173,0.073c0.475,0.009,0.949,0.009,1.433,0.018c0.785,0,0.794,0.01,0.794,0.804
		c0,3.485,0,6.971,0,10.446c0,0.229,0.027,0.466,0.036,0.73c0.457,0,0.858-0.036,1.259,0.009c0.511,0.055,0.648-0.128,0.648-0.639
		c-0.019-3.576,0-7.153-0.019-10.721c0-0.475,0.137-0.666,0.621-0.639c0.557,0.037,1.113,0.009,1.651,0.009c0-0.812,0-1.514,0-2.244
		c-2.099,0-4.151-0.009-6.204,0.019c-0.128,0-0.356,0.237-0.365,0.374C152.813,383.879,152.841,384.463,152.841,385.065z"/>
	<path fill="#FFFFFF" d="M174.793,377.219c-0.018-0.347-0.027-0.593-0.045-0.958c-0.42,0.675-0.858,1.159-1.579,1.287
		c-1.359,0.246-2.509-0.575-2.546-2.089c-0.082-3.623-0.027-7.254-0.027-10.958c0.675,0,1.333-0.027,1.98,0.027
		c0.11,0.009,0.265,0.347,0.265,0.538c0.019,1.852,0.009,3.705,0.009,5.557c0,1.003,0,2.017,0.018,3.02
		c0,0.237,0.046,0.475,0.119,0.693c0.109,0.347,0.301,0.611,0.739,0.611s0.73-0.237,0.803-0.611c0.119-0.62,0.183-1.268,0.192-1.898
		c0.018-2.363,0.009-4.726,0.009-7.089c0-0.264,0.027-0.538,0.046-0.848c0.693,0,1.332-0.019,1.971,0.018
		c0.128,0.009,0.283,0.21,0.365,0.347c0.055,0.101,0.019,0.247,0.019,0.374c0,3.759-0.009,7.518,0.009,11.268
		c0,0.539-0.127,0.776-0.702,0.721C175.907,377.182,175.368,377.219,174.793,377.219z"/>
	<path fill="#FFFFFF" d="M159.209,366.471c0.593-1.943,1.168-3.741,1.688-5.557c0.155-0.529,0.383-0.757,0.949-0.712
		c0.603,0.046,1.205,0.009,1.925,0.009c-0.082,0.329-0.119,0.584-0.201,0.821c-0.985,2.883-1.98,5.757-2.956,8.631
		c-0.101,0.301-0.165,0.639-0.165,0.958c-0.018,1.961-0.009,3.923-0.009,5.885c0,0.219,0,0.429,0,0.675c-0.849,0-1.624,0-2.473,0
		c-0.009-0.191-0.027-0.383-0.027-0.575c0-1.579-0.046-3.157,0.009-4.726c0.046-1.232-0.191-2.373-0.611-3.522
		c-0.912-2.5-1.77-5.019-2.646-7.527c-0.201-0.584-0.182-0.611,0.447-0.621c0.493,0,0.995,0.027,1.487-0.009
		c0.493-0.036,0.703,0.146,0.849,0.621C158.005,362.657,158.589,364.473,159.209,366.471z"/>
	<path fill="#FFFFFF" d="M162.312,370.786c0.155-1.414,0.201-2.847,0.502-4.224c0.52-2.373,3.413-3.285,5.192-1.715
		c0.867,0.766,1.149,1.825,1.213,2.91c0.1,1.697,0.146,3.395,0.1,5.091c-0.018,0.903-0.182,1.825-0.447,2.683
		c-0.429,1.378-1.579,2.153-3.002,2.089c-1.323-0.055-2.5-0.475-2.956-2.208c-0.319-1.241-0.338-2.555-0.475-3.841
		c-0.027-0.255,0-0.511,0-0.766C162.394,370.795,162.348,370.795,162.312,370.786z M167.001,370.896c-0.018,0-0.037,0-0.055,0
		c0-0.821,0.027-1.652-0.009-2.473c-0.018-0.447-0.091-0.922-0.273-1.323c-0.119-0.255-0.502-0.529-0.776-0.529
		c-0.264,0-0.666,0.265-0.775,0.52c-0.191,0.42-0.265,0.913-0.274,1.378c-0.027,1.606-0.027,3.221,0,4.836
		c0.009,0.411,0.055,0.857,0.237,1.223c0.155,0.301,0.484,0.647,0.794,0.711c0.411,0.091,0.721-0.283,0.867-0.684
		c0.046-0.119,0.101-0.237,0.109-0.365C166.901,373.085,166.956,371.991,167.001,370.896z"/>
	<path fill="#FFFFFF" d="M170.478,391.781c-0.019,0-0.037,0-0.055,0c0-0.42,0.027-0.84-0.009-1.26
		c-0.046-0.557-0.109-1.122-0.219-1.67c-0.073-0.347-0.283-0.629-0.711-0.639c-0.42-0.009-0.648,0.247-0.757,0.594
		c-0.119,0.355-0.228,0.739-0.237,1.113c-0.018,1.441-0.027,2.883,0.018,4.324c0.019,0.739,0.438,1.214,0.949,1.214
		c0.465-0.009,0.803-0.438,0.867-1.204C170.396,393.414,170.432,392.593,170.478,391.781z"/>
	<path fill="#FFFFFF" d="M170.478,391.781c-0.055,0.82-0.083,1.642-0.155,2.454c-0.073,0.775-0.401,1.204-0.867,1.204
		c-0.502,0.01-0.931-0.465-0.949-1.214c-0.036-1.441-0.036-2.883-0.018-4.324c0.009-0.374,0.119-0.748,0.237-1.113
		c0.109-0.347,0.337-0.603,0.757-0.593c0.438,0.009,0.639,0.292,0.711,0.639c0.119,0.547,0.173,1.113,0.219,1.67
		c0.036,0.419,0.009,0.839,0.009,1.259C170.441,391.771,170.459,391.781,170.478,391.781z"/>
	<path fill="#FFFFFF" d="M176.345,390.494c-0.995,0-1.077-0.091-0.949-1.104c0.037-0.302,0.037-0.666,0.21-0.886
		c0.183-0.237,0.539-0.465,0.821-0.465c0.246,0,0.639,0.273,0.711,0.511c0.165,0.511,0.173,1.067,0.201,1.605
		c0.009,0.101-0.201,0.283-0.347,0.319C176.792,390.531,176.563,390.494,176.345,390.494z"/>
</g>
<path fill="#FFFFFF" d="M183.543,363.405c-4.717-4.717-10.995-7.317-17.673-7.317s-12.956,2.6-17.673,7.327
	c-4.726,4.717-7.327,10.995-7.327,17.673c0,6.679,2.601,12.957,7.327,17.673c4.726,4.727,11.003,7.327,17.673,7.327
	s12.956-2.601,17.673-7.327c4.726-4.727,7.327-11.004,7.327-17.673C190.87,374.417,188.27,368.131,183.543,363.405z M165.87,403.624
	c-12.427,0-22.537-10.109-22.537-22.537s10.11-22.537,22.537-22.537c12.427,0,22.537,10.109,22.537,22.537
	S178.297,403.624,165.87,403.624z"/>
</svg>
